<?xml version="1.0" standalone="no"?>
<!DOCTYPE svg PUBLIC "-//W3C//DTD SVG 20010904//EN"
 "http://www.w3.org/TR/2001/REC-SVG-20010904/DTD/svg10.dtd">
<svg version="1.0" xmlns="http://www.w3.org/2000/svg"
 width="720.000000pt" height="720.000000pt" viewBox="0 0 720.000000 720.000000"
 preserveAspectRatio="xMidYMid meet">
<metadata>
Created by potrace 1.11, written by Peter Selinger 2001-2013
</metadata>
<g transform="translate(0.000000,720.000000) scale(0.100000,-0.100000)"
fill="#000000" stroke="none">
<path d="M1318 5304 c-36 -38 -78 -83 -94 -100 -16 -18 -81 -87 -144 -154 -63
-67 -131 -139 -150 -160 -19 -21 -87 -93 -150 -160 -63 -67 -130 -139 -149
-159 -18 -20 -96 -102 -173 -183 -147 -155 -178 -191 -178 -205 0 -8 20 -30
254 -277 72 -76 139 -148 148 -158 9 -11 71 -77 136 -146 66 -70 137 -146 158
-168 204 -217 266 -284 294 -314 18 -19 85 -91 150 -160 65 -69 132 -141 150
-160 18 -19 85 -91 150 -160 65 -69 132 -141 150 -160 18 -19 83 -88 144 -153
61 -66 127 -136 146 -156 19 -21 87 -93 150 -161 165 -177 168 -180 183 -180
7 0 55 45 107 101 52 56 113 120 135 144 22 23 90 95 150 160 61 65 124 133
140 150 17 17 57 60 90 96 33 35 119 127 191 204 72 77 147 156 165 176 19 20
53 58 77 83 41 44 66 57 74 37 2 -5 55 -64 120 -132 64 -68 128 -137 144 -154
15 -16 82 -88 149 -160 68 -71 137 -146 155 -165 38 -40 216 -232 275 -295 22
-23 82 -88 134 -144 51 -55 101 -101 110 -101 9 0 29 15 45 33 24 27 108 118
273 293 21 22 90 96 153 164 63 68 151 162 196 209 44 47 107 115 140 150 32
35 81 87 107 115 27 28 71 76 99 106 49 53 114 123 277 295 68 72 255 271 374
398 25 26 73 78 108 115 35 37 125 132 199 211 74 79 152 161 172 182 20 20
44 49 53 63 19 28 17 32 -30 82 -20 21 -217 231 -295 314 -118 126 -292 312
-351 375 -37 38 -81 86 -99 105 -39 42 -270 287 -288 307 -7 7 -19 13 -26 13
-7 0 -60 -51 -117 -112 -57 -62 -134 -144 -170 -183 -36 -38 -103 -110 -149
-160 -47 -49 -126 -133 -176 -185 -51 -52 -108 -113 -129 -135 -49 -53 -280
-297 -329 -347 l-38 -41 -72 75 c-109 115 -368 389 -396 419 -14 15 -77 83
-141 150 -64 68 -128 138 -143 154 -213 233 -342 365 -356 365 -13 0 -25 -12
-195 -194 -66 -70 -146 -156 -178 -190 -32 -33 -79 -83 -104 -111 -25 -27
-103 -111 -173 -185 -70 -74 -144 -153 -164 -174 -47 -50 -234 -251 -263 -282
-12 -13 -26 -24 -30 -24 -4 0 -57 53 -118 117 -60 65 -138 147 -171 183 -34
36 -76 81 -94 100 -31 33 -232 248 -313 334 -22 23 -89 95 -150 160 -62 66
-146 155 -188 199 l-75 80 -66 -69z"/>
</g>
</svg>
