<?xml version="1.0" encoding="UTF-8" standalone="no"?>
<!DOCTYPE svg PUBLIC "-//W3C//DTD SVG 1.1//EN" "http://www.w3.org/Graphics/SVG/1.1/DTD/svg11.dtd">

<svg width="17px" height="17px" viewBox="0 0 17 17" version="1.1" xmlns="http://www.w3.org/2000/svg" xmlns:xlink="http://www.w3.org/1999/xlink">
    <title>Shape</title>
    <g id="Page-1" stroke="none" stroke-width="1" fill="none" fill-rule="evenodd">
        <g id="WBE-/-Best-of-/-Desktop" transform="translate(-567.000000, -3003.000000)">
            <g id="Wix" transform="translate(547.000000, 2725.000000)">
                <g id="scorecard-/-collapsed" transform="translate(0.000000, 76.000000)">
                    <path d="M720.5,-0.5 L720.5,415.5 L-0.5,415.5 L-0.5,-0.5 L720.5,-0.5 Z" id="Rectangle-15-Copy-4" stroke="#28C6A1" fill="#FFFFFF"></path>
                    <g id="mid" transform="translate(20.000000, 176.000000)" fill="#28C6A1" fill-rule="nonzero">
                        <g id="Group-12" transform="translate(0.000000, 0.963843)">
                            <g id="icon/tick-copy" transform="translate(0.414062, 24.641801)">
                                <path d="M8.40563322,0.870271382 C3.94008298,0.870271382 0.353001645,4.45735272 0.353001645,8.92290296 C0.353001645,13.3884532 3.94008298,16.9755345 8.40563322,16.9755345 C12.8711835,16.9755345 16.4582648,13.3884532 16.4582648,8.92290296 C16.4582648,4.45735272 12.8711835,0.870271382 8.40563322,0.870271382 Z M7.19773849,12.4733814 C7.12453275,12.5465872 7.051327,12.58319 6.94151839,12.58319 C6.83170978,12.58319 6.72190117,12.5465872 6.6852983,12.4733814 L3.83027437,9.39874028 L3.75706863,9.32553454 C3.68386289,9.2523288 3.64726002,9.14252019 3.64726002,9.06931444 C3.64726002,8.9961087 3.68386289,8.88630009 3.75706863,8.81309435 L4.26950882,8.30065416 C4.41592031,8.15424267 4.63553753,8.15424267 4.78194901,8.30065416 L4.81855188,8.33725703 L6.83170978,10.4968264 C6.90491552,10.5700321 7.01472413,10.5700321 7.08792987,10.4968264 L11.9927146,5.40902736 L12.0293174,5.40902736 C12.1757289,5.26261588 12.3953461,5.26261588 12.5417576,5.40902736 L13.0541978,5.92146755 C13.2006093,6.03127617 13.2006093,6.25089339 13.0541978,6.39730487 L7.19773849,12.4733814 Z" id="Shape"></path>
                            </g>
                        </g>
                    </g>
                </g>
            </g>
        </g>
    </g>
</svg>
