<?xml version="1.0" encoding="UTF-8" standalone="no"?>
<!DOCTYPE svg PUBLIC "-//W3C//DTD SVG 1.1//EN" "http://www.w3.org/Graphics/SVG/1.1/DTD/svg11.dtd">

<svg width="17px" height="18px" viewBox="0 0 17 18" version="1.1" xmlns="http://www.w3.org/2000/svg" xmlns:xlink="http://www.w3.org/1999/xlink">
    <title>icon/tick copy 2</title>
    <g id="Page-1" stroke="none" stroke-width="1" fill="none" fill-rule="evenodd">
        <g id="WBE-/-Best-of-/-Desktop" transform="translate(-567.000000, -6277.000000)">
            <g id="Wix-Copy" transform="translate(547.000000, 5977.000000)">
                <g id="scorecard-/-expanded-copy-2" transform="translate(0.000000, 76.000000)">
                    <path d="M720.5,-0.5 L720.5,415.5 L-0.5,415.5 L-0.5,-0.5 L720.5,-0.5 Z" id="Rectangle-15-Copy-4" stroke="#C6CBD4" fill="#FFFFFF"></path>
                    <g id="mid" transform="translate(20.000000, 176.000000)" fill="#29235B" fill-rule="nonzero">
                        <g id="Group-12" transform="translate(0.000000, 0.963843)">
                            <g id="icon/tick-copy-2" transform="translate(0.000000, 47.536537)">
                                <path d="M8.05263158,0 C3.58708134,0 0,3.58708134 0,8.05263158 C0,12.5181818 3.58708134,16.1052632 8.05263158,16.1052632 C12.5181818,16.1052632 16.1052632,12.5181818 16.1052632,8.05263158 C16.1052632,3.58708134 12.5181818,0 8.05263158,0 Z M6.84473684,11.60311 C6.7715311,11.6763158 6.69832536,11.7129187 6.58851675,11.7129187 C6.47870813,11.7129187 6.36889952,11.6763158 6.33229665,11.60311 L3.47727273,8.5284689 L3.40406699,8.45526316 C3.33086124,8.38205742 3.29425837,8.2722488 3.29425837,8.19904306 C3.29425837,8.12583732 3.33086124,8.01602871 3.40406699,7.94282297 L3.91650718,7.43038278 C4.06291866,7.28397129 4.28253589,7.28397129 4.42894737,7.43038278 L4.46555024,7.46698565 L6.47870813,9.62655502 C6.55191388,9.69976077 6.66172249,9.69976077 6.73492823,9.62655502 L11.6397129,4.53875598 L11.6763158,4.53875598 C11.8227273,4.3923445 12.0423445,4.3923445 12.188756,4.53875598 L12.7011962,5.05119617 C12.8476077,5.16100478 12.8476077,5.38062201 12.7011962,5.52703349 L6.84473684,11.60311 Z" id="Shape"></path>
                            </g>
                        </g>
                    </g>
                </g>
            </g>
        </g>
    </g>
</svg>
