<?xml version="1.0" encoding="UTF-8"?>
<svg width="238px" height="33px" viewBox="0 0 238 33" version="1.1" xmlns="http://www.w3.org/2000/svg" xmlns:xlink="http://www.w3.org/1999/xlink">
    <title>Group 4</title>
    <defs>
        <rect id="path-1" x="0" y="0" width="237" height="31"></rect>
    </defs>
    <g id="Updated-Homepage" stroke="none" stroke-width="1" fill="none" fill-rule="evenodd">
        <g id="WBE-/-Homepage-/-Mobile" transform="translate(-41.000000, -5404.000000)">
            <g id="Group-4" transform="translate(41.500000, 5404.976998)">
                <g id="Group-2">
                    <mask id="mask-2" fill="white">
                        <use xlink:href="#path-1"></use>
                    </mask>
                    <g id="Mask"></g>
                    <g mask="url(#mask-2)" fill="#1E63FF">
                        <g transform="translate(0.061284, 0.000000)">
                            <polygon id="Fill-6" points="130.945732 90.9609885 130.945732 11.561116 128.232896 9.07444404 128.232896 88.4752476"></polygon>
                            <polygon id="Fill-8" points="125.370365 85.8519064 125.370365 6.4515684 122.657529 3.96582745 122.657529 83.3661655"></polygon>
                            <polygon id="Fill-9" points="136.521099 96.0700706 136.521099 16.6711291 133.808263 14.1844571 133.808263 93.5843296"></polygon>
                            <polygon id="Fill-10" points="141.466437 100.601846 142.096357 101.179525 142.096357 21.781049 139.383521 19.2948426 139.383521 98.6933186"></polygon>
                            <polygon id="Fill-12" points="236.877486 50.1531752 236.877486 29.2478145 234.16465 26.7611426 234.16465 52.6389161"></polygon>
                            <polygon id="Fill-13" points="186.699564 96.1421291 186.699564 16.7436531 183.986727 19.230325 183.986727 98.6278701"></polygon>
                            <polygon id="Fill-14" points="225.726752 60.3724566 225.726752 19.0272298 223.013916 16.5405578 223.013916 62.8591285"></polygon>
                            <polygon id="Fill-15" points="118.329199 9.09494702e-13 117.081837 1.14325464 117.081837 80.5431272 118.329199 79.3998725 119.795215 80.7428243 119.795215 1.34248631"></polygon>
                            <polygon id="Fill-18" points="231.301848 55.2617918 231.301848 24.137429 228.589011 21.6507571 228.589011 57.7484637"></polygon>
                            <polygon id="Fill-19" points="192.274659 91.0330471 192.274659 11.6331745 189.561823 14.1198465 189.561823 93.5192535"></polygon>
                            <polygon id="Fill-20" points="214.576073 70.5940188 214.576073 8.80706397 211.863236 6.31992654 211.863236 73.0806908"></polygon>
                            <polygon id="Fill-21" points="197.849701 85.9244305 197.849701 6.52409245 195.237782 8.91719998 195.136864 9.0098334 195.136864 88.4101714"></polygon>
                            <polygon id="Fill-22" points="203.425339 80.8148829 203.425339 1.41501036 200.712503 3.90075131 200.712503 83.3010893"></polygon>
                            <polygon id="Fill-23" points="209.000434 75.7049164 209.000434 3.69523546 206.287598 1.20809803 206.287598 78.1915883"></polygon>
                            <polygon id="Fill-24" points="220.151168 65.4833541 220.151168 13.9167977 217.438332 11.4301258 217.438332 67.970026"></polygon>
                            <polygon id="Fill-25" points="25.0142496 73.2767571 25.0142496 6.12171895 22.3014133 8.60699441 22.3014133 70.7905506"></polygon>
                            <polygon id="Fill-26" points="30.5896165 78.3862581 30.5896165 1.01314891 27.8767802 3.49888986 27.8767802 75.9000517"></polygon>
                            <polygon id="Fill-27" points="36.1649291 83.4967367 36.1649291 4.09779516 33.4520928 1.61065773 33.4520928 81.0100647"></polygon>
                            <polygon id="Fill-28" points="41.740296 88.6071687 41.740296 9.20915817 41.421809 8.91729308 39.0274597 6.72202074 39.0274597 86.1204968"></polygon>
                            <polygon id="Fill-29" points="19.4388827 68.1669768 19.4388827 11.2309407 16.7260464 13.7171471 16.7260464 65.6807703"></polygon>
                            <polygon id="Fill-30" points="47.3156629 93.7176007 47.3156629 14.3195902 44.6028266 11.8329183 44.6028266 91.2309288"></polygon>
                            <polygon id="Fill-31" points="13.8635158 63.057243 13.8635158 16.34114 11.1506795 18.8273464 11.1506795 60.5710365"></polygon>
                            <polygon id="Fill-34" points="2.71283629 52.8383806 2.71283629 26.5612127 0 29.0478846 0 50.3531051"></polygon>
                            <polygon id="Fill-35" points="8.28814892 57.9474626 8.28814892 21.4512927 5.57531263 23.9374991 5.57531263 55.4612562"></polygon>
                            <polygon id="Fill-38" points="114.219903 83.166701 114.219903 3.76775951 111.507066 6.25443145 111.507066 85.653373"></polygon>
                            <polygon id="Fill-39" points="52.8910298 98.8280328 52.8910298 19.4295567 50.1781935 16.9428848 50.1781935 96.3413608"></polygon>
                            <polygon id="Fill-40" points="103.068952 93.3875651 103.068952 13.9876926 100.356116 16.4734335 100.356116 95.874237"></polygon>
                            <polygon id="Fill-41" points="108.64459 88.2769003 108.64459 8.87888978 108.602812 8.91752583 105.931754 11.3641652 105.931754 90.7635723"></polygon>
                        </g>
                    </g>
                </g>
                <polygon id="Shape" fill="#A98AF3" transform="translate(76.500000, 16.442513) scale(1, -1) rotate(-270.000000) translate(-76.500000, -16.442513) " points="68.6413257 -11.631839 61.9195116 -19.5574868 61.9195116 52.4425132 80.1043187 29.7180522 91.0804884 16.136067"></polygon>
                <polygon id="Shape-Copy" fill="#A98AF3" transform="translate(164.000000, 16.442513) scale(1, -1) rotate(-270.000000) translate(-164.000000, -16.442513) " points="156.141326 -11.3335337 149.419512 -20.0574868 149.419512 52.9425132 167.604319 30.0163575 178.580488 16.4343722"></polygon>
            </g>
        </g>
    </g>
</svg>