<?xml version="1.0" encoding="UTF-8"?>
<svg width="214px" height="74px" viewBox="0 0 214 74" version="1.1" xmlns="http://www.w3.org/2000/svg" xmlns:xlink="http://www.w3.org/1999/xlink">
    <!-- Generator: Sketch 55.1 (78136) - https://sketchapp.com -->
    <title>atom/pattern/user-testimonial/symbol</title>
    <desc>Created with Sketch.</desc>
    <defs>
        <rect id="path-1" x="267" y="0" width="338" height="146"></rect>
    </defs>
    <g id="Tests" stroke="none" stroke-width="1" fill="none" fill-rule="evenodd">
        <g id="wbe_homepage_desktop" transform="translate(-5.000000, -3076.000000)">
            <g id="User-feedback" transform="translate(0.000000, 2605.000000)">
                <g id="atom/pattern/user-testimonial/symbol" transform="translate(-56.000000, 458.000000)">
                    <g id="atom/pattern/w-+-Shape-Mask" transform="translate(-267.000000, 0.000000)">
                        <mask id="mask-2" fill="white">
                            <use xlink:href="#path-1"></use>
                        </mask>
                        <g id="Mask"></g>
                        <g id="Group-48" transform="translate(0.000000, 11.000000)" fill="#1E63FF">
                            <polygon id="Fill-1" points="303 239.3153 303 68.7473 298 63.4053 298 233.9733"></polygon>
                            <polygon id="Fill-2" points="313.2759 250.2933 313.2759 79.7253 308.2759 74.3833 308.2759 244.9513"></polygon>
                            <polygon id="Fill-3" points="318.5523 85.2209 318.5523 255.7899 323.5513 250.4479 323.5513 79.8799"></polygon>
                            <polygon id="Fill-4" points="333.8276 239.4701 333.8276 68.9011 328.8276 74.2431 328.8276 244.8121"></polygon>
                            <polygon id="Fill-5" points="344.104 228.4916 344.104 57.9246 339.104 63.2646 339.104 233.8336"></polygon>
                            <polygon id="Fill-6" points="261.8965 195.4071 261.8965 24.8361 256.8965 19.4941 256.8965 190.0671"></polygon>
                            <polygon id="Fill-7" points="354.3794 217.5136 354.3794 46.9486 349.3794 52.2886 349.3794 222.8556"></polygon>
                            <polygon id="Fill-8" points="251.6206 184.4315 251.6206 13.8595 246.6206 8.5195 246.6206 179.0915"></polygon>
                            <polygon id="Fill-9" points="272.1724 206.3827 272.1724 35.8137 267.1724 30.4717 267.1724 201.0427"></polygon>
                            <polygon id="Fill-10" points="281.2871 216.1181 282.4481 217.3591 282.4481 46.7911 277.4481 41.4501 277.4481 212.0181"></polygon>
                            <polygon id="Fill-11" points="292.7241 228.3368 292.7241 57.7688 287.7241 52.4278 287.7241 222.9948"></polygon>
                            <polygon id="Fill-12" points="457.1382 107.7416 457.1382 62.8316 452.1382 57.4896 452.1382 113.0816"></polygon>
                            <polygon id="Fill-13" points="364.6558 206.5375 364.6558 35.9695 359.6558 41.3115 359.6558 211.8775"></polygon>
                            <polygon id="Fill-14" points="436.5864 129.6952 436.5864 40.8752 431.5864 35.5332 431.5864 135.0372"></polygon>
                            <polygon id="Fill-15" points="238.6431 -0.0001 236.3441 2.4559 236.3441 173.0269 238.6431 170.5709 241.3451 173.4559 241.3451 2.8839"></polygon>
                            <polygon id="Fill-16" points="472.6899 91.1339 477.6899 85.7949 477.6899 84.7869 472.6899 79.4459"></polygon>
                            <polygon id="Fill-17" points="467.4136 96.7689 467.4136 73.8089 462.4136 68.4669 462.4136 102.1079"></polygon>
                            <polygon id="Fill-18" points="446.8618 118.7162 446.8618 51.8532 441.8618 46.5112 441.8618 124.0582"></polygon>
                            <polygon id="Fill-19" points="374.9312 195.5619 374.9312 24.9909 369.9312 30.3329 369.9312 200.9029"></polygon>
                            <polygon id="Fill-20" points="416.0347 151.6537 416.0347 18.9197 411.0347 13.5767 411.0347 156.9957"></polygon>
                            <polygon id="Fill-21" points="385.2065 184.5873 385.2065 14.0153 380.3925 19.1563 380.2065 19.3553 380.2065 189.9273"></polygon>
                            <polygon id="Fill-22" points="395.4829 173.6107 395.4829 3.0397 390.4829 8.3797 390.4829 178.9517"></polygon>
                            <polygon id="Fill-23" points="405.7583 162.6332 405.7583 7.9382 400.7583 2.5952 400.7583 167.9752"></polygon>
                            <polygon id="Fill-24" points="426.3101 140.6747 426.3101 29.8967 421.3101 24.5547 421.3101 146.0167"></polygon>
                            <polygon id="Fill-25" points="66.6553 157.4169 66.6553 13.1509 61.6553 18.4899 61.6553 152.0759"></polygon>
                            <polygon id="Fill-26" points="76.9312 168.3934 76.9312 2.1764 71.9312 7.5164 71.9312 163.0524"></polygon>
                            <polygon id="Fill-27" points="87.207 179.372 87.207 8.803 82.207 3.46 82.207 174.03"></polygon>
                            <polygon id="Fill-28" points="97.4829 190.3505 97.4829 19.7835 96.8959 19.1565 92.4829 14.4405 92.4829 185.0085"></polygon>
                            <polygon id="Fill-29" points="56.3794 146.4398 56.3794 24.1268 51.3794 29.4678 51.3794 141.0988"></polygon>
                            <polygon id="Fill-30" points="107.7588 201.329 107.7588 30.762 102.7588 25.42 102.7588 195.987"></polygon>
                            <polygon id="Fill-31" points="46.1035 135.4628 46.1035 35.1048 41.1035 40.4458 41.1035 130.1218"></polygon>
                            <polygon id="Fill-32" points="0 84.3578 0 86.2248 5 91.5628 5 79.0158"></polygon>
                            <polygon id="Fill-33" points="15.2759 102.5365 15.2759 68.0385 10.2759 73.3805 10.2759 97.1975"></polygon>
                            <polygon id="Fill-34" points="25.5518 113.5101 25.5518 57.0601 20.5518 62.4021 20.5518 108.1711"></polygon>
                            <polygon id="Fill-35" points="35.8276 124.4857 35.8276 46.0827 30.8276 51.4237 30.8276 119.1447"></polygon>
                            <polygon id="Fill-36" points="189.9658 222.5741 189.9658 51.9991 184.9658 57.3401 184.9658 227.9141"></polygon>
                            <polygon id="Fill-37" points="196.0107 216.1181 200.2417 211.5971 200.2417 41.0221 198.7217 42.6451 195.2417 46.3631 195.2417 216.9391"></polygon>
                            <polygon id="Fill-38" points="231.0693 178.663 231.0693 8.094 226.0693 13.436 226.0693 184.005"></polygon>
                            <polygon id="Fill-39" points="118.0347 212.3075 118.0347 41.7395 113.0347 36.3975 113.0347 206.9655"></polygon>
                            <polygon id="Fill-40" points="210.5171 200.62 210.5171 30.049 205.5171 35.389 205.5171 205.962"></polygon>
                            <polygon id="Fill-41" points="220.7935 189.641 220.7935 19.074 220.7165 19.157 215.7935 24.413 215.7935 194.983"></polygon>
                            <polygon id="Fill-42" points="179.6899 233.5492 179.6899 62.9762 174.6899 68.3182 174.6899 238.8892"></polygon>
                            <polygon id="Fill-43" points="128.3105 223.286 128.3105 52.718 123.3105 47.376 123.3105 217.944"></polygon>
                            <polygon id="Fill-44" points="138.5864 234.2641 138.5864 63.6961 133.5864 58.3541 133.5864 228.9221"></polygon>
                            <polygon id="Fill-45" points="169.4141 244.5243 169.4141 73.9533 164.4141 79.2953 164.4141 249.8643"></polygon>
                            <polygon id="Fill-46" points="154.1385 250.8785 158.8005 255.8605 159.1385 255.4995 159.1385 84.9305 158.8005 85.2915 154.1385 80.3095"></polygon>
                            <polygon id="Fill-47" points="148.8623 245.2426 148.8623 74.6736 143.8623 69.3316 143.8623 239.9006"></polygon>
                        </g>
                        <polygon id="Shape" fill="#A98AF3" transform="translate(468.500000, 133.500000) scale(1, -1) rotate(-270.000000) translate(-468.500000, -133.500000) " points="484.438002 27.6530706 455.893811 -3 427.324756 27.6530706 354 106.425206 455.893811 270 534.788165 185.272411 583 133.5"></polygon>
                    </g>
                </g>
            </g>
        </g>
    </g>
</svg>