<svg width="90px" height="90px" viewBox="0 0 90 90" version="1.1" xmlns="http://www.w3.org/2000/svg" xmlns:xlink="http://www.w3.org/1999/xlink">
    <g id="Page-1" stroke="none" stroke-width="1" fill="none" fill-rule="evenodd">
        <rect id="Rectangle" fill="#DDE3ED" x="0" y="0" width="90" height="90"></rect>
        <polygon id="Shape" fill="#44D6CA" fill-rule="nonzero" points="79.7902307 41.428686 70.7824695 31.8365358 68.1722659 29.0573038 65.5633107 31.8365358 58.8586703 38.9758362 68.1722659 53.801314 75.3837178 46.1213652"></polygon>
        <polygon id="Shape" fill="#8C64F0" fill-rule="nonzero" points="60.9620624 46.1213652 56.5555495 41.428686 47.54654 31.8365358 44.9375848 29.0573038 42.3286296 31.8365358 35.6239891 38.9758362 44.9375848 53.801314 51.1416554 60.4074403 56.5555495 66.1726962 61.9681954 60.4074403 68.1722659 53.801314"></polygon>
        <polygon id="Shape" fill="#1E64FF" fill-rule="nonzero" points="37.7273813 46.1213652 33.3196201 41.428686 24.3118589 31.8365358 21.7029037 29.0573038 19.0927001 31.8365358 10.0849389 41.428686 14.4914518 46.1213652 21.7029037 53.801314 27.9069742 60.4074403 33.3196201 66.1726962 38.7335142 60.4074403 44.9375848 53.801314"></polygon>
        <polygon id="Shape" fill="#25334D" fill-rule="nonzero" points="33.3196201 41.428686 37.7273813 46.1213652 44.9375848 53.801314 39.1292266 35.2436177"></polygon>
        <polygon id="Shape" fill="#25334D" fill-rule="nonzero" points="56.5555495 41.428686 60.9620624 46.1213652 68.1722659 53.801314 68.1722659 53.801314 62.3639077 35.2436177"></polygon>
    </g>
</svg>
