<?xml version="1.0" encoding="UTF-8" standalone="no"?>
<!DOCTYPE svg PUBLIC "-//W3C//DTD SVG 1.1//EN" "http://www.w3.org/Graphics/SVG/1.1/DTD/svg11.dtd">
<svg width="24px" height="20px" viewBox="0 0 24 20" version="1.1" xmlns="http://www.w3.org/2000/svg" xmlns:xlink="http://www.w3.org/1999/xlink">
    <title>Shape</title>
    <g id="Page-1" stroke="none" stroke-width="1" fill="none" fill-rule="evenodd">
        <g id="WBE-/-Best-of-/-Desktop" transform="translate(-567.000000, -8886.000000)">
            <g id="Wix-Copy-2" transform="translate(547.000000, 8788.000000)">
                <g id="scorecard-/-expanded-copy-5" transform="translate(0.000000, 76.000000)">
                    <path d="M720.5,-0.5 L720.5,587.5 L-0.5,587.5 L-0.5,-0.5 L720.5,-0.5 Z" id="Rectangle-15-Copy-4" stroke="#C6CBD4" fill="#FFFFFF"></path>
                    <g id="account-group-(1)" transform="translate(20.000000, 20.000000)">
                        <rect id="Rectangle" x="0" y="0" width="24" height="24"></rect>
                        <g id="cash-usd" transform="translate(0.000000, 2.000000)" fill="#29235B" fill-rule="nonzero">
                            <path d="M21.6,0 L2.4,0 C1.068,0 0,1.068 0,2.4 L0,16.8 C0,18.132 1.08,19.2 2.4,19.2 L21.6,19.2 C22.932,19.2 24,18.132 24,16.8 L24,2.4 C24,1.068 22.92,0 21.6,0 M15.6,7.2 L10.8,7.2 L10.8,8.4 L14.4,8.4 C15.06,8.4 15.6,8.94 15.6,9.6 L15.6,13.2 C15.6,13.86 15.06,14.4 14.4,14.4 L13.2,14.4 L13.2,15.6 L10.8,15.6 L10.8,14.4 L8.4,14.4 L8.4,12 L13.2,12 L13.2,10.8 L9.6,10.8 C8.94,10.8 8.4,10.26 8.4,9.6 L8.4,6 C8.4,5.34 8.94,4.8 9.6,4.8 L10.8,4.8 L10.8,3.6 L13.2,3.6 L13.2,4.8 L15.6,4.8 L15.6,7.2 Z" id="Shape"></path>
                        </g>
                    </g>
                </g>
            </g>
        </g>
    </g>
</svg>
