<svg xmlns="http://www.w3.org/2000/svg" xml:space="preserve" viewBox="0 0 220 220">
    <path fill="#ffc007" d="M110 0c61 0 110 49 110 110s-49 110-110 110S0 171 0 110 49 0 110 0zm7 40h-13c-1 0-3 1-3 3v13c-17 2-29 17-28 35 2 17 17 29 33 29h9c8 0 14 7 13 15-1 7-7 12-14 12h-12c-4 0-8-3-9-7 0-1-1-2-3-2H78c-1 0-3 1-3 3 1 13 12 24 26 25v13c0 1 1 3 3 3h13c1 0 3-1 3-3v-14c14-2 26-13 27-28 2-19-13-35-32-35h-10c-8 0-14-7-13-15 1-7 7-12 14-12h12c4 0 8 3 9 7 0 1 1 2 3 2h13c1 0 3-1 3-3-1-13-12-24-26-25V43c-1-2-2-3-3-3"/>
</svg>
