<?xml version="1.0" encoding="UTF-8"?>
<svg width="20px" height="20px" viewBox="0 0 20 20" version="1.1" xmlns="http://www.w3.org/2000/svg" xmlns:xlink="http://www.w3.org/1999/xlink">
    <title>Shape@1x</title>
    <g id="HF---Components" stroke="none" stroke-width="1" fill="none" fill-rule="evenodd">
        <g id="HF---The-Verdict" transform="translate(-557.000000, -627.000000)" fill="#38D39F" fill-rule="nonzero">
            <g id="Question-CTA-Copy-12" transform="translate(433.000000, 606.000000)">
                <g id="Group-3" transform="translate(124.500000, 20.754717)">
                    <path d="M14.25,2.89831589 L14.25,0.998315892 L4.75,0.998315892 L4.75,2.89831589 L0,2.89831589 L0,9.54831589 C0,10.5933159 0.855,11.4483159 1.9,11.4483159 L4.845,11.4483159 C5.22788419,13.3131475 6.68516841,14.7704317 8.55,15.1533159 L8.55,17.2243159 C5.7,17.6613159 5.7,19.9983159 5.7,19.9983159 L13.3,19.9983159 C13.3,19.9983159 13.3,17.6613159 10.45,17.2243159 L10.45,15.1533159 C12.3148316,14.7704317 13.7721158,13.3131475 14.155,11.4483159 L17.1,11.4483159 C18.145,11.4483159 19,10.5933159 19,9.54831589 L19,2.89831589 L14.25,2.89831589 M1.9,9.54831589 L1.9,4.79831589 L4.75,4.79831589 L4.75,9.54831589 L1.9,9.54831589 M17.1,9.54831589 L14.25,9.54831589 L14.25,4.79831589 L17.1,4.79831589 L17.1,9.54831589 L17.1,9.54831589 Z" id="Shape"></path>
                </g>
            </g>
        </g>
    </g>
</svg>