<?xml version="1.0" encoding="UTF-8"?>
<svg width="24px" height="24px" viewBox="0 0 24 24" version="1.1" xmlns="http://www.w3.org/2000/svg" xmlns:xlink="http://www.w3.org/1999/xlink">
    <defs>
        <path d="M19.1066316,4.54178889 L21.3599807,9.53601111 C21.4353816,9.70323333 21.3161505,9.89423333 21.1362731,9.89423333 L16.629358,9.89423333 C16.4494807,9.89423333 16.330141,9.70323333 16.4056505,9.5359 L18.6592165,4.54178889 C18.7473108,4.34645556 19.0185373,4.34645556 19.1066316,4.54178889 M1.59061274,13.5025667 L3.75261274,8.7109 C3.86153726,8.46923333 4.19699009,8.46923333 4.3061316,8.7109 L6.4681316,13.5025667 C6.56154198,13.7094556 6.41399481,13.9457889 6.19137217,13.9457889 L1.86737217,13.9457889 C1.64485802,13.9457889 1.49731085,13.7094556 1.59061274,13.5025667 M22.9109618,10.4754556 C22.9150844,10.3877889 22.8993533,10.2990111 22.862141,10.2167889 L19.3753627,2.48867778 C19.3740608,2.48578889 19.372108,2.48334444 19.3709146,2.48045556 C19.367009,2.47234444 19.3623439,2.46501111 19.3582212,2.45712222 C19.3469382,2.43567778 19.3345703,2.41523333 19.320792,2.3959 C19.3147165,2.38734444 19.3085325,2.3789 19.3021316,2.37067778 C19.2852071,2.34967778 19.2671976,2.33001111 19.2478863,2.3119 C19.2443061,2.30856667 19.2411599,2.30478889 19.2376882,2.30156667 C19.2144712,2.28101111 19.1893014,2.26312222 19.1630467,2.2469 C19.1552354,2.24212222 19.1473156,2.23812222 19.1393958,2.23367778 C19.118891,2.22234444 19.0979524,2.21256667 19.0761458,2.20401111 C19.067575,2.20067778 19.0592212,2.19712222 19.0504335,2.19423333 C19.021141,2.18445556 18.9911976,2.17645556 18.9600608,2.1719 C18.9569146,2.17145556 18.9535514,2.17156667 18.9502967,2.17112222 C18.9280561,2.16823333 18.9055986,2.16612222 18.8828156,2.16612222 C18.8766316,2.16612222 18.8704476,2.16723333 18.8642637,2.16745556 C18.8549335,2.16778889 18.8456033,2.16867778 18.8361646,2.16956667 C18.8094759,2.1719 18.7833297,2.17623333 18.7576175,2.18245556 C18.7527354,2.18356667 18.7479618,2.18356667 18.7431882,2.18478889 L12.5467495,3.87501111 C12.5434948,3.8759 12.5402401,3.87334444 12.5402401,3.8699 L12.5402401,1.22745556 C12.5402401,0.634011111 12.1039995,0.112677778 11.5256363,0.0755666667 C10.8964995,0.0351222222 10.3720561,0.547788889 10.3720561,1.18356667 L10.3720561,4.46412222 C10.3720561,4.46656667 10.3706458,4.46867778 10.368259,4.46923333 L3.88974481,6.23634444 C3.88790047,6.2369 3.8863816,6.2379 3.88432028,6.23845556 C3.85329198,6.24734444 3.82334858,6.25901111 3.79449009,6.27312222 C3.78667877,6.27701111 3.7795184,6.28156667 3.77181557,6.28578889 C3.75109387,6.29734444 3.73091462,6.31023333 3.71182028,6.32456667 C3.70379198,6.33045556 3.69598066,6.33612222 3.68838632,6.34234444 C3.6645184,6.36212222 3.64173538,6.38345556 3.62133915,6.40734444 C3.61992877,6.4089 3.61895236,6.41078889 3.61743349,6.41245556 C3.59866462,6.43501111 3.58184858,6.45956667 3.56665991,6.48534444 C3.56177783,6.49367778 3.5575467,6.50212222 3.55299009,6.51067778 C3.54778255,6.52056667 3.54159858,6.5299 3.53693349,6.54023333 L0.0500466981,14.2683444 C0.0144617925,14.3473444 -0.00105235849,14.4322333 0.00111745283,14.5165667 C0.000575000002,14.5341222 3.25471723e-05,14.5515667 3.25471723e-05,14.5691222 C3.25471723e-05,16.7520111 1.80759387,18.5280111 4.02926368,18.5280111 C6.25115047,18.5280111 8.05871179,16.7521222 8.05871179,14.5691222 C8.05871179,14.5550111 8.05827783,14.5410111 8.05773538,14.5270111 C8.06174953,14.4392333 8.04612689,14.3504556 8.00902311,14.2682333 L4.79520708,7.14578889 C4.7937967,7.14278889 4.79542406,7.13923333 4.79846179,7.13834444 L10.3656552,5.6199 C10.3689099,5.61901111 10.3720561,5.62156667 10.3720561,5.62501111 L10.3720561,17.6299 C10.3720561,19.4540111 8.27222123,20.9380111 6.4911316,20.9380111 C5.68374481,20.9380111 5.02694292,21.6110111 5.02737689,22.4453444 C5.02759387,22.7524556 5.27506085,23.0000111 5.57492877,23.0000111 L17.3375844,23.0000111 C17.636042,23.0000111 17.8827495,22.7549 17.8851363,22.4493444 C17.8916458,21.6172333 17.2325656,20.9380111 16.4214901,20.9380111 C14.6404005,20.9380111 12.5404571,19.4540111 12.5404571,17.6299 L12.5404571,5.03078889 C12.5404571,5.02834444 12.5419759,5.02623333 12.5442542,5.02556667 L17.8951175,3.56612222 C17.8993486,3.5649 17.9030373,3.56945556 17.9011929,3.57356667 L14.9033816,10.2166778 C14.8677967,10.2956778 14.8522825,10.3806778 14.8545608,10.4650111 C14.8540184,10.4825667 14.8534759,10.5000111 14.8534759,10.5175667 C14.8534759,12.7004556 16.6610373,14.4764556 18.8828156,14.4764556 C21.1045939,14.4764556 22.9121552,12.7004556 22.9121552,10.5175667 C22.9118297,10.5034556 22.9113958,10.4894556 22.9109618,10.4754556" id="path-icon-difficulty"></path>
    </defs>
    <g stroke="none" stroke-width="1" fill="none" fill-rule="evenodd">
        <g id="Header-banner" transform="translate(-925.000000, -467.000000)">
            <g id="Fill-4-+-atom/color/lightblue-Mask" transform="translate(925.730871, 467.750000)">
                <mask id="mask-icon-difficulty" fill="white">
                    <use xlink:href="#path-icon-difficulty"></use>
                </mask>
                <use id="Mask" fill="#000000" xlink:href="#path-icon-difficulty"></use>
                <path d="M13.8,4.59995315 C13.8,5.87024995 12.7702709,6.9 11.5,6.9 C10.2297291,6.9 9.2,5.87024995 9.2,4.59995315 C9.2,3.32965634 10.2297291,2.3 11.5,2.3 C12.7702709,2.3 13.8,3.32965634 13.8,4.59995315" id="Fill-4" fill="#000000" mask="url(#mask-icon-difficulty)"></path>
                <g id="Group" mask="url(#mask-icon-difficulty)">
                    <g transform="translate(-6.900000, -2.300000)" id="atom/color/lightblue">
                        <rect id="Rectangle-Copy" fill="#06060F" x="0" y="0" width="34.5" height="27.6"></rect>
                    </g>
                </g>
            </g>
        </g>
    </g>
</svg>
