<?xml version="1.0" encoding="utf-8"?>
<svg version="1.1" xmlns="http://www.w3.org/2000/svg" xmlns:xlink="http://www.w3.org/1999/xlink" x="0px" y="0px"
	 viewBox="0 0 13.7 12.9" style="enable-background:new 0 0 13.7 12.9;" xml:space="preserve">
<style type="text/css">
	.st0{fill:#FF0C3E;}
</style>
<path class="st0" d="M8.2,6.5l5.2-4.9c0.4-0.3,0.4-0.9,0-1.3c-0.3-0.4-0.9-0.4-1.3,0l-5.3,5l-5.3-5c-0.4-0.3-1-0.3-1.3,0
	c-0.3,0.4-0.3,1,0,1.3l5.2,4.9l-5.2,4.9c-0.4,0.3-0.4,0.9,0,1.3c0.2,0.2,0.4,0.3,0.7,0.3c0.2,0,0.4-0.1,0.6-0.2l5.3-5l5.3,5
	c0.2,0.2,0.4,0.2,0.6,0.2c0.2,0,0.5-0.1,0.7-0.3c0.3-0.4,0.3-1,0-1.3L8.2,6.5z"/>
</svg>
