<?xml version="1.0" encoding="UTF-8"?>
<svg width="24px" height="24px" viewBox="0 0 24 24" version="1.1" xmlns="http://www.w3.org/2000/svg" xmlns:xlink="http://www.w3.org/1999/xlink">
    <defs>
        <path d="M11.5,23 C13.5712368,23 15.4879032,22.4821906 17.25,21.4465726 C19.0120968,20.4109545 20.4109545,19.0120968 21.4465726,17.25 C22.4821906,15.4879032 23,13.5712368 23,11.5 C23,9.42876321 22.4821906,7.51209677 21.4465726,5.75 C20.4109545,3.98790323 19.0120968,2.58904546 17.25,1.55342742 C15.4879032,0.517809376 13.5712368,0 11.5,0 C9.42876321,0 7.51209677,0.517809376 5.75,1.55342742 C3.98790323,2.58904546 2.58904546,3.98790323 1.55342742,5.75 C0.517809376,7.51209677 0,9.42876321 0,11.5 C0,13.5712368 0.517809376,15.4879032 1.55342742,17.25 C2.58904546,19.0120968 3.98790323,20.4109545 5.75,21.4465726 C7.51209677,22.4821906 9.42876321,23 11.5,23 Z M11.5,20.7741935 C9.83064516,20.7741935 8.28494647,20.3568548 6.86290323,19.5221774 C5.44085998,18.6875 4.3125,17.55914 3.47782258,16.1370968 C2.64314516,14.7150535 2.22580645,13.1693548 2.22580645,11.5 C2.22580645,9.83064516 2.64314516,8.28494647 3.47782258,6.86290323 C4.3125,5.44085998 5.44085998,4.3125 6.86290323,3.47782258 C8.28494647,2.64314516 9.83064516,2.22580645 11.5,2.22580645 C13.1693548,2.22580645 14.7150535,2.64314516 16.1370968,3.47782258 C17.55914,4.3125 18.6875,5.44085998 19.5221774,6.86290323 C20.3568548,8.28494647 20.7741935,9.83064516 20.7741935,11.5 C20.7741935,13.1693548 20.3568548,14.7150535 19.5221774,16.1370968 C18.6875,17.55914 17.55914,18.6875 16.1370968,19.5221774 C14.7150535,20.3568548 13.1693548,20.7741935 11.5,20.7741935 Z M14.6429213,16.0546596 L14.7923387,16.0443548 C14.9469084,16.0134406 15.0705645,15.9361561 15.1633065,15.8125 L15.1633065,15.8125 L15.9979839,14.6068548 C16.0907258,14.4831987 16.129368,14.3440858 16.1139113,14.1895161 C16.0984545,14.0349465 16.0288981,13.9112903 15.9052419,13.8185484 L15.9052419,13.8185484 L12.7983871,11.5927419 L12.7983871,5.00806452 C12.7983871,4.85349486 12.7442874,4.72210998 12.6360887,4.61391129 C12.52789,4.5057126 12.3965051,4.4516129 12.2419355,4.4516129 L12.2419355,4.4516129 L10.7580645,4.4516129 C10.6034949,4.4516129 10.47211,4.5057126 10.3639113,4.61391129 C10.2557126,4.72210998 10.2016129,4.85349486 10.2016129,5.00806452 L10.2016129,5.00806452 L10.2016129,12.6129032 C10.2016129,12.7983871 10.2788981,12.9529568 10.4334677,13.0766129 L10.4334677,13.0766129 L14.375,15.9516129 C14.4986561,16.0443548 14.6377691,16.0752691 14.7923387,16.0443548 L14.6429213,16.0546596 Z" id="path-icon-time"></path>
    </defs>
    <g stroke="none" stroke-width="1" fill="none" fill-rule="evenodd">
        <g id="Header-banner" transform="translate(-345.000000, -467.000000)">
            <g transform="translate(345.730871, 467.750000)">
                <mask id="mask-icon-time" fill="white">
                    <use xlink:href="#path-icon-time"></use>
                </mask>
                <use id="clock" fill="#1E23FF" fill-rule="nonzero" xlink:href="#path-icon-time"></use>
                <path d="M13.8742275,4.39442631 C13.8742275,5.70570356 12.8112788,6.76867389 11.5000283,6.76867389 C10.1887778,6.76867389 9.12582909,5.70570356 9.12582909,4.39442631 C9.12582909,3.08314906 10.1887778,2.02027547 11.5000283,2.02027547 C12.8112788,2.02027547 13.8742275,3.08314906 13.8742275,4.39442631" id="Fill-4" fill="#000000" mask="url(#mask-icon-time)"></path>
                <g id="Group" mask="url(#mask-icon-time)">
                    <g transform="translate(-7.493565, -2.728123)" id="atom/color/lightblue">
                        <rect id="Rectangle-Copy" fill="#06060F" x="0" y="0" width="35.6129881" height="28.4903905"></rect>
                    </g>
                </g>
            </g>
        </g>
    </g>
</svg>
