<?xml version="1.0" encoding="UTF-8"?>
<svg width="16px" height="16px" viewBox="0 0 16 16" version="1.1" xmlns="http://www.w3.org/2000/svg" xmlns:xlink="http://www.w3.org/1999/xlink">
    <defs>
        <path d="M0,1.092 C0.182,0.941 0.38,0.8 0.593,0.667 C0.807,0.535 1.037,0.419 1.283,0.319 C1.528,0.219 1.793,0.14 2.075,0.084 C2.357,0.028 2.663,0 2.993,0 C3.455,0 3.871,0.061 4.242,0.183 C4.613,0.305 4.929,0.48 5.189,0.707 C5.449,0.935 5.649,1.208 5.789,1.528 C5.93,1.848 6,2.204 6,2.595 C6.00771243,2.92408693 5.9551818,3.25181028 5.845,3.562 C5.75059648,3.81550643 5.61770477,4.05295762 5.451,4.266 C5.291,4.466 5.117,4.639 4.928,4.783 C4.738,4.927 4.559,5.063 4.389,5.19 C4.219,5.317 4.072,5.441 3.947,5.563 C3.82899705,5.67228271 3.74791685,5.81557101 3.715,5.973 L3.509,7 L1.946,7 L1.784,5.82 C1.77418041,5.76184415 1.76916348,5.70297882 1.769,5.644 C1.769,5.429 1.821,5.241 1.924,5.08 C2.027,4.918 2.157,4.77 2.314,4.636 C2.47688255,4.49756911 2.64713106,4.36804671 2.824,4.248 C3.004,4.123 3.174,3.988 3.332,3.845 C3.48595974,3.70453518 3.61748612,3.54130756 3.722,3.361 C3.826,3.182 3.877,2.971 3.877,2.727 C3.877,2.434 3.78,2.2 3.586,2.027 C3.392,1.853 3.126,1.767 2.786,1.767 C2.526,1.767 2.308,1.793 2.134,1.847 C1.97879252,1.89305901 1.82815645,1.95331344 1.684,2.027 C1.559,2.093 1.45,2.153 1.356,2.207 C1.27141212,2.25802426 1.17477611,2.28563455 1.076,2.287 C0.879465588,2.29567925 0.695588082,2.19010551 0.604,2.016 L0,1.092 Z M2,9 C1.99707116,8.6630339 2.16489412,8.34748372 2.44592801,8.16154104 C2.72696191,7.97559835 3.08301175,7.94453441 3.392,8.079 C3.513,8.132 3.619,8.203 3.71,8.292 C3.9,8.478 4.005,8.734 4,9 C4,9.14 3.974,9.272 3.923,9.395 C3.82489613,9.635936 3.63330449,9.82680602 3.392,9.924 C3.271,9.974 3.14,10 3,10 C2.86358584,10.0015374 2.72824932,9.97569425 2.602,9.924 C2.36283511,9.82514107 2.17358757,9.63409118 2.077,9.394 C2.02538357,9.26909519 1.99920597,9.13514746 2,9 L2,9 Z" id="path-icon-tooltip"></path>
    </defs>
    <g stroke="none" stroke-width="1" fill="none" fill-rule="evenodd">
        <g id="Header-banner" transform="translate(-1077.000000, -472.000000)">
            <g id="Group-9" transform="translate(1077.269129, 472.529221)">
                <g id="Group" transform="translate(2.416608, 2.416608)">
                    <g id="atom/color/lightblue" transform="translate(2.000000, 0.000000)">
                        <mask id="mask-icon-tooltip" fill="white">
                            <use xlink:href="#path-icon-tooltip"></use>
                        </mask>
                        <use id="Mask" fill="#000000" fill-rule="nonzero" xlink:href="#path-icon-tooltip"></use>
                        <g id="Group" mask="url(#mask-icon-tooltip)">
                            <g transform="translate(-2.000000, 0.000000)" id="atom/color/lightblue">
                                <rect id="Rectangle-Copy" fill="#9BB0C6" x="0" y="0" width="10" height="10"></rect>
                            </g>
                        </g>
                    </g>
                </g>
                <circle id="Oval" stroke="#9BB0C6" cx="7.41660768" cy="7.41660768" r="6.91660768"></circle>
            </g>
        </g>
    </g>
</svg>
