<svg xmlns="http://www.w3.org/2000/svg" xml:space="preserve" x="0" y="0" version="1.1" viewBox="0 0 247 250">
    <path fill="#8c63ef" d="M201 15c-3 0-3 0-3-3V0H49v12c0 3 0 3-2 3H0c0 11 0 22 2 33 2 15 6 30 12 43 12 26 34 41 58 38 2 0 5 1 6 4 7 13 17 23 29 28 1 0 2 2 1 3v42H73v28H62V250h124v-16h-12v-28h-36V170c0-4 0-8 5-9h1c10-7 19-16 25-28 1-2 2-2 4-2 8 1 16 0 24-3a61 61 0 00 36-36c9-20 14-42 14-65V15h-46zM67 110c-4-1-8-1-12-4a45 45 0 01-27-27c-6-13-9-27-10-42v-2h31c1 0 1 0 1 2a200 200 0 00 12 60c2 4 3 8 5 13zM230 41c-2 16-6 31-13 44-8 14-20 23-34 24H180c2-5 4-11 7-15 5-16 8-34 10-51V40c0-4 0-4 4-4H230v5"/>
</svg>
