<svg xmlns="http://www.w3.org/2000/svg" xml:space="preserve" x="0" y="0" version="1.1" viewBox="0 0 236 167">
    <path fill="#8c63ef" d="M216 167a75 75 0 00 11-39c0-5-1-10-3-16-2-6-5-11-8-16h-37c-1-8 0-16 3-24 3-8 6-16 12-23 5-7 11-13 19-19s15-10 24-12L224 0c-16 3-31 10-44 20-13 10-25 23-34 40s-14 37-14 61c1 15 5 30 12 46h72zm-132 0a75 75 0 00 11-39c0-5-1-10-3-16s-5-11-8-16H46c-1-8 0-16 3-24 2-8 6-15 11-22 5-7 11-13 19-19 7-6 15-10 24-12L92 0C76 3 61 10 48 20A120.8 120.8 0 00 0 121c1 15 5 30 12 46h72"/>
</svg>
