<svg xmlns="http://www.w3.org/2000/svg" xml:space="preserve" x="0" y="0" version="1.1" viewBox="0 0 250 249">
    <path fill="#8c63ef" d="m208 49 24 54c1 2 0 4-2 4h-49c-2 0-3-2-2-4l24-54c1-3 4-3 5 0M17 146l24-52c1-3 5-3 6 0L70 146c1 2-1 5-3 5H20c-2 0-4-3-3-5m232-33c0-1 0-2-1-3L210 26v-1l-1-1s-1 0-1-1h-4l-67 18V13c0-6-5-12-11-13-7 0-13 5-13 12v36l-70 19h-2s-1 0-1 1c0 0 0 1-1 1L1 153c-1 2-1 3-1 4v1c0 24 20 43 44 43 24 0 44-19 44-43 0-1 0-2-1-3L52 77 113 60v130c0 20-23 36-42 36-9 0-16 7-16 16 0 3 3 6 6 6h128c3 0 6-3 6-6 0-9-7-16-16-16-19 0-42-16-42-36V54l58-16-33 72c0 1-1 2-1 3v1c0 24 20 43 44 43s44-20 44-44"/>
</svg>
