<?xml version="1.0" encoding="UTF-8"?>
<svg width="555px" height="38px" viewBox="0 0 555 38" version="1.1" xmlns="http://www.w3.org/2000/svg" xmlns:xlink="http://www.w3.org/1999/xlink">
    <defs>
        <path d="M3.6916,17.2106 L2.6928,17.2106 C1.1968,17.2106 0,16.0226 0,14.5706 L0,2.64 C0,1.188 1.1968,0 2.6928,0 L19.3072,0 C20.8032,0 22,1.188 22,2.64 L22,14.5728 C22,16.0226 20.8032,17.2128 19.3072,17.2128 L8.8088,17.2128 L3.6916,22 L3.6916,17.2106 Z M5.3856,18.161 L8.1136,15.6046 L19.3072,15.6046 C19.5771635,15.6005502 19.8344225,15.489255 20.0222163,15.2952701 C20.2100102,15.1012852 20.3129056,14.8405528 20.3083546,14.5706 L20.3083546,2.64 C20.3129056,2.37004715 20.2100102,2.10931481 20.0222163,1.91532992 C19.8344225,1.72134502 19.5771635,1.61004981 19.3072,1.606 L2.6928,1.606 C2.42283652,1.61004981 2.16557754,1.72134502 1.97778365,1.91532992 C1.78998976,2.10931481 1.68709441,2.37004715 1.69164542,2.64 L1.69164542,14.5728 C1.69164542,15.1514 2.1494,15.6068 2.6928,15.6068 L5.3856,15.6068 L5.3856,18.1588 L5.3856,18.161 Z" id="path-icon-message"></path>
        <path d="M5.3696,25.0336 L3.9168,25.0336 C1.7408,25.0336 0,23.3056 0,21.1936 L0,3.84 C0,1.728 1.7408,0 3.9168,0 L28.0832,0 C30.2592,0 32,1.728 32,3.84 L32,21.1968 C32,23.3056 30.2592,25.0368 28.0832,25.0368 L12.8128,25.0368 L5.3696,32 L5.3696,25.0336 Z M7.8336,26.416 L11.8016,22.6976 L28.0832,22.6976 C28.4758742,22.6917094 28.850069,22.5298254 29.1232238,22.2476656 C29.3963785,21.9655057 29.5460445,21.5862587 29.5394248,21.1936 L29.5394248,3.84 C29.5460445,3.44734131 29.3963785,3.06809427 29.1232238,2.78593442 C28.850069,2.50377458 28.4758742,2.34189063 28.0832,2.336 L3.9168,2.336 C3.52412584,2.34189063 3.14993096,2.50377458 2.87677622,2.78593442 C2.60362148,3.06809427 2.4539555,3.44734131 2.46057516,3.84 L2.46057516,21.1968 C2.46057516,22.0384 3.1264,22.7008 3.9168,22.7008 L7.8336,22.7008 L7.8336,26.4128 L7.8336,26.416 Z" id="path-3"></path>
        <path d="M3.6916,17.2106 L2.6928,17.2106 C1.1968,17.2106 0,16.0226 0,14.5706 L0,2.64 C0,1.188 1.1968,0 2.6928,0 L19.3072,0 C20.8032,0 22,1.188 22,2.64 L22,14.5728 C22,16.0226 20.8032,17.2128 19.3072,17.2128 L8.8088,17.2128 L3.6916,22 L3.6916,17.2106 Z M5.3856,18.161 L8.1136,15.6046 L19.3072,15.6046 C19.5771635,15.6005502 19.8344225,15.489255 20.0222163,15.2952701 C20.2100102,15.1012852 20.3129056,14.8405528 20.3083546,14.5706 L20.3083546,2.64 C20.3129056,2.37004715 20.2100102,2.10931481 20.0222163,1.91532992 C19.8344225,1.72134502 19.5771635,1.61004981 19.3072,1.606 L2.6928,1.606 C2.42283652,1.61004981 2.16557754,1.72134502 1.97778365,1.91532992 C1.78998976,2.10931481 1.68709441,2.37004715 1.69164542,2.64 L1.69164542,14.5728 C1.69164542,15.1514 2.1494,15.6068 2.6928,15.6068 L5.3856,15.6068 L5.3856,18.1588 L5.3856,18.161 Z" id="path-5"></path>
        <path d="M5.3696,25.0336 L3.9168,25.0336 C1.7408,25.0336 0,23.3056 0,21.1936 L0,3.84 C0,1.728 1.7408,0 3.9168,0 L28.0832,0 C30.2592,0 32,1.728 32,3.84 L32,21.1968 C32,23.3056 30.2592,25.0368 28.0832,25.0368 L12.8128,25.0368 L5.3696,32 L5.3696,25.0336 Z M7.8336,26.416 L11.8016,22.6976 L28.0832,22.6976 C28.4758742,22.6917094 28.850069,22.5298254 29.1232238,22.2476656 C29.3963785,21.9655057 29.5460445,21.5862587 29.5394248,21.1936 L29.5394248,3.84 C29.5460445,3.44734131 29.3963785,3.06809427 29.1232238,2.78593442 C28.850069,2.50377458 28.4758742,2.34189063 28.0832,2.336 L3.9168,2.336 C3.52412584,2.34189063 3.14993096,2.50377458 2.87677622,2.78593442 C2.60362148,3.06809427 2.4539555,3.44734131 2.46057516,3.84 L2.46057516,21.1968 C2.46057516,22.0384 3.1264,22.7008 3.9168,22.7008 L7.8336,22.7008 L7.8336,26.4128 L7.8336,26.416 Z" id="path-7"></path>
        <path d="M3.6916,17.2106 L2.6928,17.2106 C1.1968,17.2106 0,16.0226 0,14.5706 L0,2.64 C0,1.188 1.1968,0 2.6928,0 L19.3072,0 C20.8032,0 22,1.188 22,2.64 L22,14.5728 C22,16.0226 20.8032,17.2128 19.3072,17.2128 L8.8088,17.2128 L3.6916,22 L3.6916,17.2106 Z M5.3856,18.161 L8.1136,15.6046 L19.3072,15.6046 C19.5771635,15.6005502 19.8344225,15.489255 20.0222163,15.2952701 C20.2100102,15.1012852 20.3129056,14.8405528 20.3083546,14.5706 L20.3083546,2.64 C20.3129056,2.37004715 20.2100102,2.10931481 20.0222163,1.91532992 C19.8344225,1.72134502 19.5771635,1.61004981 19.3072,1.606 L2.6928,1.606 C2.42283652,1.61004981 2.16557754,1.72134502 1.97778365,1.91532992 C1.78998976,2.10931481 1.68709441,2.37004715 1.69164542,2.64 L1.69164542,14.5728 C1.69164542,15.1514 2.1494,15.6068 2.6928,15.6068 L5.3856,15.6068 L5.3856,18.1588 L5.3856,18.161 Z" id="path-9"></path>
        <path d="M5.3696,25.0336 L3.9168,25.0336 C1.7408,25.0336 0,23.3056 0,21.1936 L0,3.84 C0,1.728 1.7408,0 3.9168,0 L28.0832,0 C30.2592,0 32,1.728 32,3.84 L32,21.1968 C32,23.3056 30.2592,25.0368 28.0832,25.0368 L12.8128,25.0368 L5.3696,32 L5.3696,25.0336 Z M7.8336,26.416 L11.8016,22.6976 L28.0832,22.6976 C28.4758742,22.6917094 28.850069,22.5298254 29.1232238,22.2476656 C29.3963785,21.9655057 29.5460445,21.5862587 29.5394248,21.1936 L29.5394248,3.84 C29.5460445,3.44734131 29.3963785,3.06809427 29.1232238,2.78593442 C28.850069,2.50377458 28.4758742,2.34189063 28.0832,2.336 L3.9168,2.336 C3.52412584,2.34189063 3.14993096,2.50377458 2.87677622,2.78593442 C2.60362148,3.06809427 2.4539555,3.44734131 2.46057516,3.84 L2.46057516,21.1968 C2.46057516,22.0384 3.1264,22.7008 3.9168,22.7008 L7.8336,22.7008 L7.8336,26.4128 L7.8336,26.416 Z" id="path-icon-message1"></path>
        <path d="M3.6916,17.2106 L2.6928,17.2106 C1.1968,17.2106 0,16.0226 0,14.5706 L0,2.64 C0,1.188 1.1968,0 2.6928,0 L19.3072,0 C20.8032,0 22,1.188 22,2.64 L22,14.5728 C22,16.0226 20.8032,17.2128 19.3072,17.2128 L8.8088,17.2128 L3.6916,22 L3.6916,17.2106 Z M5.3856,18.161 L8.1136,15.6046 L19.3072,15.6046 C19.5771635,15.6005502 19.8344225,15.489255 20.0222163,15.2952701 C20.2100102,15.1012852 20.3129056,14.8405528 20.3083546,14.5706 L20.3083546,2.64 C20.3129056,2.37004715 20.2100102,2.10931481 20.0222163,1.91532992 C19.8344225,1.72134502 19.5771635,1.61004981 19.3072,1.606 L2.6928,1.606 C2.42283652,1.61004981 2.16557754,1.72134502 1.97778365,1.91532992 C1.78998976,2.10931481 1.68709441,2.37004715 1.69164542,2.64 L1.69164542,14.5728 C1.69164542,15.1514 2.1494,15.6068 2.6928,15.6068 L5.3856,15.6068 L5.3856,18.1588 L5.3856,18.161 Z" id="path-icon-message3"></path>
        <path d="M5.3696,25.0336 L3.9168,25.0336 C1.7408,25.0336 0,23.3056 0,21.1936 L0,3.84 C0,1.728 1.7408,0 3.9168,0 L28.0832,0 C30.2592,0 32,1.728 32,3.84 L32,21.1968 C32,23.3056 30.2592,25.0368 28.0832,25.0368 L12.8128,25.0368 L5.3696,32 L5.3696,25.0336 Z M7.8336,26.416 L11.8016,22.6976 L28.0832,22.6976 C28.4758742,22.6917094 28.850069,22.5298254 29.1232238,22.2476656 C29.3963785,21.9655057 29.5460445,21.5862587 29.5394248,21.1936 L29.5394248,3.84 C29.5460445,3.44734131 29.3963785,3.06809427 29.1232238,2.78593442 C28.850069,2.50377458 28.4758742,2.34189063 28.0832,2.336 L3.9168,2.336 C3.52412584,2.34189063 3.14993096,2.50377458 2.87677622,2.78593442 C2.60362148,3.06809427 2.4539555,3.44734131 2.46057516,3.84 L2.46057516,21.1968 C2.46057516,22.0384 3.1264,22.7008 3.9168,22.7008 L7.8336,22.7008 L7.8336,26.4128 L7.8336,26.416 Z" id="path-icon-message5"></path>
        <path d="M3.6916,17.2106 L2.6928,17.2106 C1.1968,17.2106 0,16.0226 0,14.5706 L0,2.64 C0,1.188 1.1968,0 2.6928,0 L19.3072,0 C20.8032,0 22,1.188 22,2.64 L22,14.5728 C22,16.0226 20.8032,17.2128 19.3072,17.2128 L8.8088,17.2128 L3.6916,22 L3.6916,17.2106 Z M5.3856,18.161 L8.1136,15.6046 L19.3072,15.6046 C19.5771635,15.6005502 19.8344225,15.489255 20.0222163,15.2952701 C20.2100102,15.1012852 20.3129056,14.8405528 20.3083546,14.5706 L20.3083546,2.64 C20.3129056,2.37004715 20.2100102,2.10931481 20.0222163,1.91532992 C19.8344225,1.72134502 19.5771635,1.61004981 19.3072,1.606 L2.6928,1.606 C2.42283652,1.61004981 2.16557754,1.72134502 1.97778365,1.91532992 C1.78998976,2.10931481 1.68709441,2.37004715 1.69164542,2.64 L1.69164542,14.5728 C1.69164542,15.1514 2.1494,15.6068 2.6928,15.6068 L5.3856,15.6068 L5.3856,18.1588 L5.3856,18.161 Z" id="path-icon-message7"></path>
    </defs>
    <g stroke="none" stroke-width="1" fill="none" fill-rule="evenodd" opacity="0.37">
        <g id="Expert-Quotes" transform="translate(-116.000000, -301.000000)">
            <g id="Group-Copy-3" transform="translate(33.588000, 98.458337)">
                <g id="Group-2" transform="translate(83.256985, 203.464705)">
                    <g id="Group" transform="translate(529.743015, 7.535295)">
                        <g id="atom/color/lightblue" transform="translate(11.000000, 11.000000) rotate(-10.000000) translate(-11.000000, -11.000000) ">
                            <mask id="mask-icon-message" fill="white">
                                <use xlink:href="#path-icon-message"></use>
                            </mask>
                            <use id="Mask" fill="#000000" fill-rule="nonzero" xlink:href="#path-icon-message"></use>
                            <g id="Group" mask="url(#mask-icon-message)">
                                <g transform="translate(-4.400000, -2.200000)" id="atom/color/lightblue">
                                    <rect id="Rectangle" fill="#1E22FF" x="0" y="0" width="29.3333333" height="25.6666667"></rect>
                                </g>
                            </g>
                        </g>
                    </g>
                    <g id="Group" transform="translate(458.743015, 2.535295)">
                        <g id="atom/color/lightblue" transform="translate(16.000000, 16.000000) rotate(10.000000) translate(-16.000000, -16.000000) ">
                            <mask id="mask-4" fill="white">
                                <use xlink:href="#path-3"></use>
                            </mask>
                            <use id="Mask" fill="#000000" fill-rule="nonzero" xlink:href="#path-3"></use>
                            <g id="Group" mask="url(#mask-4)">
                                <g transform="translate(-6.400000, -3.200000)" id="atom/color/lightblue">
                                    <rect id="Rectangle" fill="#1E22FF" x="0" y="0" width="42.6666667" height="37.3333333"></rect>
                                </g>
                            </g>
                        </g>
                    </g>
                    <g id="Group" transform="translate(397.743015, 7.535295)">
                        <g id="atom/color/lightblue" transform="translate(11.000000, 11.000000) rotate(-10.000000) translate(-11.000000, -11.000000) ">
                            <mask id="mask-6" fill="white">
                                <use xlink:href="#path-5"></use>
                            </mask>
                            <use id="Mask" fill="#000000" fill-rule="nonzero" xlink:href="#path-5"></use>
                            <g id="Group" mask="url(#mask-6)">
                                <g transform="translate(-4.400000, -2.200000)" id="atom/color/lightblue">
                                    <rect id="Rectangle" fill="#1E22FF" x="0" y="0" width="29.3333333" height="25.6666667"></rect>
                                </g>
                            </g>
                        </g>
                    </g>
                    <g id="Group" transform="translate(326.743015, 2.535295)">
                        <g id="atom/color/lightblue" transform="translate(16.000000, 16.000000) rotate(10.000000) translate(-16.000000, -16.000000) ">
                            <mask id="mask-8" fill="white">
                                <use xlink:href="#path-7"></use>
                            </mask>
                            <use id="Mask" fill="#000000" fill-rule="nonzero" xlink:href="#path-7"></use>
                            <g id="Group" mask="url(#mask-8)">
                                <g transform="translate(-6.400000, -3.200000)" id="atom/color/lightblue">
                                    <rect id="Rectangle" fill="#1E22FF" x="0" y="0" width="42.6666667" height="37.3333333"></rect>
                                </g>
                            </g>
                        </g>
                    </g>
                    <g id="Group" transform="translate(265.743015, 7.535295)">
                        <g id="atom/color/lightblue" transform="translate(11.000000, 11.000000) rotate(-10.000000) translate(-11.000000, -11.000000) ">
                            <mask id="mask-10" fill="white">
                                <use xlink:href="#path-9"></use>
                            </mask>
                            <use id="Mask" fill="#000000" fill-rule="nonzero" xlink:href="#path-9"></use>
                            <g id="Group" mask="url(#mask-10)">
                                <g transform="translate(-4.400000, -2.200000)" id="atom/color/lightblue">
                                    <rect id="Rectangle" fill="#1E22FF" x="0" y="0" width="29.3333333" height="25.6666667"></rect>
                                </g>
                            </g>
                        </g>
                    </g>
                    <g id="Group" transform="translate(194.743015, 2.535295)">
                        <g id="atom/color/lightblue" transform="translate(16.000000, 16.000000) rotate(10.000000) translate(-16.000000, -16.000000) ">
                            <mask id="mask-12" fill="white">
                                <use xlink:href="#path-icon-message1"></use>
                            </mask>
                            <use id="Mask" fill="#000000" fill-rule="nonzero" xlink:href="#path-icon-message1"></use>
                            <g id="Group" mask="url(#mask-12)">
                                <g transform="translate(-6.400000, -3.200000)" id="atom/color/lightblue">
                                    <rect id="Rectangle" fill="#1E22FF" x="0" y="0" width="42.6666667" height="37.3333333"></rect>
                                </g>
                            </g>
                        </g>
                    </g>
                    <g id="Group" transform="translate(133.743015, 7.535295)">
                        <g id="atom/color/lightblue" transform="translate(11.000000, 11.000000) rotate(-10.000000) translate(-11.000000, -11.000000) ">
                            <mask id="mask-14" fill="white">
                                <use xlink:href="#path-icon-message3"></use>
                            </mask>
                            <use id="Mask" fill="#000000" fill-rule="nonzero" xlink:href="#path-icon-message3"></use>
                            <g id="Group" mask="url(#mask-14)">
                                <g transform="translate(-4.400000, -2.200000)" id="atom/color/lightblue">
                                    <rect id="Rectangle" fill="#1E22FF" x="0" y="0" width="29.3333333" height="25.6666667"></rect>
                                </g>
                            </g>
                        </g>
                    </g>
                    <g id="Group" transform="translate(62.743015, 2.535295)">
                        <g id="atom/color/lightblue" transform="translate(16.000000, 16.000000) rotate(10.000000) translate(-16.000000, -16.000000) ">
                            <mask id="mask-16" fill="white">
                                <use xlink:href="#path-icon-message5"></use>
                            </mask>
                            <use id="Mask" fill="#000000" fill-rule="nonzero" xlink:href="#path-icon-message5"></use>
                            <g id="Group" mask="url(#mask-16)">
                                <g transform="translate(-6.400000, -3.200000)" id="atom/color/lightblue">
                                    <rect id="Rectangle" fill="#1E22FF" x="0" y="0" width="42.6666667" height="37.3333333"></rect>
                                </g>
                            </g>
                        </g>
                    </g>
                    <g id="Group" transform="translate(1.743015, 7.535295)">
                        <g id="atom/color/lightblue" transform="translate(11.000000, 11.000000) rotate(-10.000000) translate(-11.000000, -11.000000) ">
                            <mask id="mask-18" fill="white">
                                <use xlink:href="#path-icon-message7"></use>
                            </mask>
                            <use id="Mask" fill="#000000" fill-rule="nonzero" xlink:href="#path-icon-message7"></use>
                            <g id="Group" mask="url(#mask-18)">
                                <g transform="translate(-4.400000, -2.200000)" id="atom/color/lightblue">
                                    <rect id="Rectangle" fill="#1E22FF" x="0" y="0" width="29.3333333" height="25.6666667"></rect>
                                </g>
                            </g>
                        </g>
                    </g>
                </g>
            </g>
        </g>
    </g>
</svg>
