<svg xmlns="http://www.w3.org/2000/svg" xml:space="preserve" x="0" y="0" version="1.1" viewBox="0 0 140 121">
    <path fill="#555555" d="M111 0A28.8 28.8 0 01 140 29v47c0 8-3 15-9 21-5 5-13 9-21 9H44c-1 0-2 0-3 1l-18 12c-3 1-6 2-8 2-4 0-8-2-10-4-3-3-5-7-5-11V29C0 21 3 14 9 8s12-8 20-8h82zM29 12c-4 0-9 2-12 5-3 3-5 8-5 12v77c0 1 1 2 2 3 1 1 2 0 3 0l18-12c3-2 6-3 10-3h66c5 0 9-2 12-5 3-3 5-8 5-12V29c0-5-2-9-5-12-3-3-8-5-12-5H29zM70 44c5 0 9 4 9 9s-4 8-9 8-9-4-9-8 4-9 9-9zm35 0c5 0 9 4 9 9s-4 8-9 8-9-4-9-8 4-9 9-9zm-70 0c5 0 9 4 9 9s-4 8-9 8-9-4-9-8 4-9 9-9"/>
</svg>
