<svg xmlns="http://www.w3.org/2000/svg" xml:space="preserve" x="0" y="0" version="1.1" viewBox="0 0 140 141">
    <path fill="#1e22ff" d="M44 1c-1 0-3 1-4 2-1 1-2 3-2 4v6H19c-10 1-19 9-19 20v89c0 10 9 19 19 19h102c10 0 19-9 19-19V33c0-10-9-19-19-19h-19V7c0-2-1-3-2-5-1-1-3-1-5-1s-3 1-4 2c-1 1-2 3-2 4v6H76V7c0-2-1-3-2-5C73 1 72 1 70 1s-3 1-5 2c-1 1-1 3-1 4v6H51V7c0-2-1-3-2-5-1-1-3-1-5-1zM19 26h19v6c0 3 3 6 6 6s6-3 6-6v-6h13v6c0 4 3 6 6 6s6-3 6-6v-6h13v6c0 2 1 4 3 6s4 1 6 0 3-3 3-6v-6h19c4 0 6 3 6 6v19H13V33c0-4 2-7 6-7zm-6 38h115v57c0 4-3 6-6 6H19c-4 0-6-3-6-6V64zm32 13c-4 0-7 3-7 7 0 3 3 6 7 6s6-3 6-6c0-4-3-7-6-7zm25 0c-4 0-6 3-6 7 0 3 2 6 6 6s6-3 6-6c0-4-2-7-6-7zm25 0c-3 0-6 3-6 6v1c0 3 3 6 6 6h1c4 0 6-3 6-6 0-4-3-7-7-7zm-50 26c-4 0-6 3-6 6 0 4 3 6 6 6s6-3 6-6c0-4-3-6-6-6zm25 0c-4 0-6 3-6 6 0 4 3 6 6 6s6-3 6-6c0-4-2-6-6-6zm25 0c-3 0-6 2-6 6v1c0 3 2 6 6 6h1c4 0 6-3 6-6 0-5-3-7-7-7"/>
</svg>
