<?xml version="1.0" encoding="UTF-8"?>
<svg width="45px" height="46px" viewBox="0 0 45 46" version="1.1" xmlns="http://www.w3.org/2000/svg" xmlns:xlink="http://www.w3.org/1999/xlink">
    <g stroke="none" stroke-width="1" fill="none" fill-rule="evenodd">
        <g transform="translate(-58.000000, -121.000000)" fill="#1E23FF" fill-rule="nonzero">
            <g transform="translate(34.500000, 102.677646)">
                <path d="M28.0707781,63.8443528 C28.3637137,63.8443528 28.6127102,63.7418248 28.817765,63.53677 C29.0228198,63.3317152 29.1253479,63.0827186 29.1253479,62.789783 L29.1253479,52.0683234 C30.8243766,51.3066892 32.4648189,50.720818 34.0466736,50.310707 C36.1558132,49.7834221 38.4993021,49.5197797 41.077139,49.5197797 C42.1317088,49.5197797 43.2448662,49.6662482 44.41661,49.9591838 C45.1782442,50.1349454 46.2914003,50.4571755 47.756081,50.9258728 C49.4551097,51.5117453 50.773322,51.8925617 51.7107178,52.0683234 C53.2339848,52.4198466 54.6986656,52.5956083 56.1047586,52.5956083 C58.2724859,52.5956083 60.3230378,52.244085 62.2564158,51.5410385 C64.0140321,50.9551659 65.7716485,50.0470646 67.5292648,48.8167332 C68.1737237,48.4066222 68.4959538,47.820751 68.4959538,47.0591168 L68.4959538,24.1222237 C68.4959538,23.3020031 68.1737237,22.6868374 67.5292648,22.2767265 C66.8848059,21.8666156 66.2110525,21.8373224 65.508006,22.1888457 C60.8210296,24.3565729 56.895686,25.4404359 53.7319766,25.4404359 C52.6774068,25.4404359 51.5642493,25.2939674 50.3925055,25.0010318 C49.6308713,24.8252702 48.5177152,24.5030401 47.0530345,24.0343428 C45.3540058,23.4484703 44.0357936,23.0676539 43.0983977,22.8918922 C41.5751307,22.540369 40.11045,22.3646073 38.7043569,22.3646073 C36.3022817,22.3646073 34.0466736,22.7747182 31.937534,23.5949388 C32.1132957,22.3060197 31.7471251,21.1782163 30.8390238,20.2115273 C29.9309225,19.2448383 28.8324123,18.790787 27.5434932,18.8493747 C26.4889234,18.9079623 25.5661748,19.3180719 24.7752475,20.0797061 C23.9843201,20.8413403 23.5595633,21.7347944 23.5009756,22.760071 C23.442388,23.7853476 23.6767372,24.6788017 24.2040221,25.4404359 C24.731307,26.2020701 25.4343536,26.729355 26.3131617,27.0222906 L26.3131617,62.789783 C26.3131617,63.0827186 26.4156898,63.3317152 26.6207446,63.53677 C26.8257994,63.7418248 27.0747959,63.8443528 27.3677315,63.8443528 L28.0707781,63.8443528 Z M27.7192548,24.8252702 C27.2505576,24.8252702 26.8404466,24.6495086 26.4889234,24.2979853 C26.1374001,23.946462 25.9616385,23.5363511 25.9616385,23.0676539 C25.9616385,22.5989566 26.1374001,22.1888457 26.4889234,21.8373224 C26.8404466,21.4857992 27.2505576,21.3100375 27.7192548,21.3100375 C28.1879521,21.3100375 28.598063,21.4857992 28.9495863,21.8373224 C29.3011095,22.1888457 29.4768712,22.5989566 29.4768712,23.0676539 C29.4768712,23.5363511 29.3011095,23.946462 28.9495863,24.2979853 C28.598063,24.6495086 28.1879521,24.8252702 27.7192548,24.8252702 Z M56.1047586,49.7834221 C54.8744272,49.7834221 53.5855081,49.6369537 52.2380027,49.3440181 C51.4177822,49.1096688 50.2020967,48.7434996 48.5909488,48.2455079 C46.9798009,47.7475161 45.7641154,47.4106401 44.9438949,47.2348785 C43.5963895,46.8833552 42.3074704,46.7075936 41.077139,46.7075936 C39.026587,46.7075936 36.8881529,46.9272956 34.6618393,47.3666997 C32.4355258,47.8061038 30.5900286,48.3480359 29.1253479,48.9924948 L29.1253479,28.252622 C30.2970917,27.3738139 31.6445984,26.6707673 33.1678655,26.1434824 C35.0426558,25.4990236 36.8881529,25.1767935 38.7043569,25.1767935 C39.9346883,25.1767935 41.2236074,25.3232619 42.5711128,25.6161975 C43.3913334,25.8505468 44.6070189,26.216716 46.2181667,26.7147078 C47.8293146,27.2126995 49.0450001,27.5495755 49.8652206,27.7253371 C51.212726,28.0768604 52.5016451,28.252622 53.7319766,28.252622 C55.6067669,28.252622 57.745201,27.9010988 60.1472762,27.1980522 C62.1392418,26.6707673 63.984739,25.997014 65.6837676,25.1767935 L65.6837676,46.7075936 C64.5120239,47.5864017 63.1645171,48.2894483 61.6412501,48.8167332 C59.7664598,49.461192 57.9209626,49.7834221 56.1047586,49.7834221 Z M30.531441,35.1952066 C31.2344875,34.7265093 32.2158237,34.2871052 33.4754483,33.8769943 C34.5251355,33.5352352 35.5849943,33.2748479 36.6550249,33.0958315 L37.2982638,32.9981861 L37.2982638,32.9981861 L37.2982638,26.6707673 C34.837601,26.9051166 32.5819929,27.6667495 30.531441,28.9556686 L30.531441,35.1952066 Z M57.5108517,35.6346106 C59.2098804,35.341675 61.4654884,34.6386285 64.2776746,33.525471 L64.2776746,27.2859331 C61.9927733,28.2233289 59.7371653,28.8970809 57.5108517,29.3071918 L57.5108517,35.6346106 Z M50.7440288,35.458849 L50.7440288,29.3950727 C49.572285,29.1607234 47.9318427,28.7213193 45.8227031,28.0768604 L44.0650867,27.4616947 L44.0650867,33.4375902 C44.6509593,33.6133519 45.5590606,33.9062875 46.789392,34.3163984 C48.5470084,34.8436833 49.8652206,35.2244997 50.7440288,35.458849 Z M44.0650867,39.5013666 L44.0650867,33.4375902 C42.7761676,33.086067 41.6044239,32.8810122 40.5498541,32.8224245 C39.4952843,32.7638369 38.4114213,32.8224245 37.2982638,32.9981861 L37.2982638,39.2377241 C39.7589267,39.0033748 42.0145348,39.0912557 44.0650867,39.5013666 Z M57.0566513,42.0176274 L57.5108517,41.9620295 L57.5108517,41.9620295 L57.5108517,35.6346106 C55.3431244,35.9861339 53.0875177,35.9275463 50.7440288,35.458849 L50.7440288,41.4347446 C52.9745272,42.0331707 55.0787351,42.2274649 57.0566513,42.0176274 Z M30.531441,46.971236 C32.5234066,46.3267771 34.7790133,45.8580785 37.2982638,45.5651429 L37.2982638,39.2377241 C35.0133626,39.4720734 32.7577545,39.9700638 30.531441,40.731698 L30.531441,46.971236 Z M50.7440288,47.4985209 L50.7440288,41.4347446 L48.3712467,40.6438172 C46.4964564,40.0579446 45.0610689,39.6771282 44.0650867,39.5013666 L44.0650867,45.5651429 C45.2368305,45.7994922 46.8772729,46.2388963 48.9864125,46.8833552 L50.7440288,47.4985209 Z M57.5108517,48.2894483 C59.9715146,48.055099 62.2271226,47.2934661 64.2776746,46.004547 L64.2776746,39.765009 C63.5160404,40.2337063 62.5200582,40.6731104 61.2897268,41.0832213 C60.0593954,41.4933322 58.7997708,41.7862678 57.5108517,41.9620295 L57.5108517,48.2894483 Z"></path>
            </g>
        </g>
    </g>
</svg>
