<?xml version="1.0" encoding="UTF-8"?>
<svg width="57px" height="41px" viewBox="0 0 57 41" version="1.1" xmlns="http://www.w3.org/2000/svg" xmlns:xlink="http://www.w3.org/1999/xlink">
    <g id="MID/HF---Components" stroke="none" stroke-width="1" fill="none" fill-rule="evenodd">
        <g id="Expert-Quotes" class="quotes"  transform="translate(-656.000000, -220.000000)" fill="#1E23FF" fill-rule="nonzero">
            <g id="Group-Copy-3" transform="translate(33.588000, 98.458337)">
                <path d="M673.731261,162 C674.541928,160.784 675.200594,159.390667 675.707261,157.82 C676.213928,156.249333 676.467261,154.602667 676.467261,152.88 C676.467261,151.765333 676.213928,150.498667 675.707261,149.08 C675.200594,147.661333 674.541928,146.394667 673.731261,145.28 L673.731261,145.28 L664.915261,145.28 C664.712594,143.456 664.915261,141.581333 665.523261,139.656 C666.131261,137.730667 667.043261,135.932 668.259261,134.26 C669.475261,132.588 670.944594,131.093333 672.667261,129.776 C674.389928,128.458667 676.315261,127.496 678.443261,126.888 L678.443261,126.888 L675.707261,122.48 C671.957928,123.290667 668.487261,124.886667 665.295261,127.268 C662.103261,129.649333 659.417928,132.790667 657.239261,136.692 C655.060594,140.593333 653.971261,145.432 653.971261,151.208 C654.173928,154.653333 655.085928,158.250667 656.707261,162 L656.707261,162 L673.731261,162 Z M642.419261,162 C643.229928,160.784 643.888594,159.390667 644.395261,157.82 C644.901928,156.249333 645.155261,154.602667 645.155261,152.88 C645.155261,151.765333 644.901928,150.498667 644.395261,149.08 C643.888594,147.661333 643.229928,146.394667 642.419261,145.28 L642.419261,145.28 L633.603261,145.28 C633.400594,143.456 633.603261,141.581333 634.211261,139.656 C634.819261,137.730667 635.731261,135.932 636.947261,134.26 C638.163261,132.588 639.632594,131.093333 641.355261,129.776 C643.077928,128.458667 645.003261,127.496 647.131261,126.888 L647.131261,126.888 L644.395261,122.48 C640.645928,123.290667 637.175261,124.886667 633.983261,127.268 C630.791261,129.649333 628.105928,132.790667 625.927261,136.692 C623.748594,140.593333 622.659261,145.432 622.659261,151.208 C622.861928,154.653333 623.773928,158.250667 625.395261,162 L625.395261,162 L642.419261,162 Z" id="“-copy" transform="translate(650.551261, 142.240000) scale(-1, -1) translate(-650.551261, -142.240000) "></path>
            </g>
        </g>
    </g>
</svg>
