<svg xmlns="http://www.w3.org/2000/svg" xml:space="preserve" x="0" y="0" version="1.1" viewBox="0 0 108 140">
    <path fill="#1e22ff" d="M0 50c0-6 1-12 4-17s6-11 10-16C19 12 25 8 32 5 40 2 48 0 58 0c15 0 27 5 37 14 10 9 14 20 14 32 0 16-4 29-12 40s-19 16-31 16c-4 0-8-1-12-3s-7-5-9-8L40 113c0 2-1 4-2 5-1 2-2 4-2 5s-2 3-3 5c-1 2-2 4-3 5s-2 2-2 3c-1 1-1 2-2 2l-1 2s-1 1-1 0-1 0-1-1v-24c0-2 1-5 1-7 1-4 4-19 10-44-1-1-1-3-2-5 0-2-1-4-1-5v-2c0-6 2-11 5-15s7-6 11-6c3 0 6 1 8 3s3 6 3 9c0 2 0 5-1 8-1 3-2 7-4 11s-2 7-3 10c0 4 0 8 3 11 3 3 6 5 10 5 7 0 13-4 18-13 5-8 7-18 7-30 0-9-3-16-9-22-5-6-13-9-24-9-12 0-21 4-29 11-7 8-10 17-10 27 0 6 2 12 5 16 1 1 2 3 1 4 0 0 0 2-1 3 0 2-1 3-1 3 0 2 0 3-1 3h-3C10 79 6 75 4 69 1 64 0 58 0 50"/>
</svg>
