<?xml version="1.0" encoding="UTF-8" standalone="no"?>
<!DOCTYPE svg PUBLIC "-//W3C//DTD SVG 1.1//EN" "http://www.w3.org/Graphics/SVG/1.1/DTD/svg11.dtd">
<svg width="24px" height="24px" viewBox="0 0 24 24" version="1.1" xmlns="http://www.w3.org/2000/svg" xmlns:xlink="http://www.w3.org/1999/xlink">
    <title>account-group (1)</title>
    <g id="Page-1" stroke="none" stroke-width="1" fill="none" fill-rule="evenodd">
        <g id="WBE-/-Best-of-/-Desktop" transform="translate(-567.000000, -6073.000000)">
            <g id="Wix-Copy" transform="translate(547.000000, 5977.000000)">
                <g id="scorecard-/-expanded-copy-2" transform="translate(0.000000, 76.000000)">
                    <path d="M720.5,-0.5 L720.5,415.5 L-0.5,415.5 L-0.5,-0.5 L720.5,-0.5 Z" id="Rectangle-15-Copy-4" stroke="#C6CBD4" fill="#FFFFFF"></path>
                    <g id="account-group-(1)" transform="translate(20.000000, 20.000000)">
                        <rect id="Rectangle" x="0" y="0" width="24" height="24"></rect>
                        <path d="M12,5 C13.9329966,5 15.5,6.56700338 15.5,8.5 C15.5,10.4329966 13.9329966,12 12,12 C10.0670034,12 8.5,10.4329966 8.5,8.5 C8.5,6.56700338 10.0670034,5 12,5 M5,7.5 C5.56,7.5 6.08,7.65 6.53,7.92 C6.38,9.35 6.8,10.77 7.66,11.88 C7.16,12.84 6.16,13.5 5,13.5 C3.34314575,13.5 2,12.1568542 2,10.5 C2,8.84314575 3.34314575,7.5 5,7.5 M19,7.5 C20.6568542,7.5 22,8.84314575 22,10.5 C22,12.1568542 20.6568542,13.5 19,13.5 C17.84,13.5 16.84,12.84 16.34,11.88 C17.2,10.77 17.62,9.35 17.47,7.92 C17.92,7.65 18.44,7.5 19,7.5 M5.5,17.75 C5.5,15.68 8.41,14 12,14 C15.59,14 18.5,15.68 18.5,17.75 L18.5,19.5 L5.5,19.5 L5.5,17.75 M0,19.5 L0,18 C0,16.61 1.89,15.44 4.45,15.1 C3.86,15.78 3.5,16.72 3.5,17.75 L3.5,19.5 L0,19.5 M24,19.5 L20.5,19.5 L20.5,17.75 C20.5,16.72 20.14,15.78 19.55,15.1 C22.11,15.44 24,16.61 24,18 L24,19.5 Z" id="Shape" fill="#29235B" fill-rule="nonzero"></path>
                    </g>
                </g>
            </g>
        </g>
    </g>
</svg>
