<svg xmlns="http://www.w3.org/2000/svg" width="325" height="85" viewBox="0 0 325 85"><defs><mask id="6ianb" width="2" height="2" x="-1" y="-1"><path fill="#fff" d="M8 7h309v70H8z"/><path d="M8.69 13.83a6 6 0 0 1 6-6h296a6 6 0 0 1 6 6v44.752a6 6 0 0 1-6 6H183.415L171.51 76.488l-11.796-11.795.11-.11H14.69a6 6 0 0 1-6-6z"/></mask><filter id="6iana" width="349" height="110" x="-12" y="-13" filterUnits="userSpaceOnUse"><feOffset in="SourceGraphic" result="FeOffset1025Out"/><feGaussianBlur in="FeOffset1025Out" result="FeGaussianBlur1026Out" stdDeviation="4 4"/></filter><clipPath id="6ianc"><path fill="#fff" d="M8.69 13.83a6 6 0 0 1 6-6h296a6 6 0 0 1 6 6v44.752a6 6 0 0 1-6 6H183.415L171.51 76.488l-11.796-11.795.11-.11H14.69a6 6 0 0 1-6-6z"/></clipPath></defs><g><g><g transform="rotate(-180 162.5 42)"><g filter="url(#6iana)"><path fill="none" d="M8.69 13.83a6 6 0 0 1 6-6h296a6 6 0 0 1 6 6v44.752a6 6 0 0 1-6 6H183.415L171.51 76.488l-11.796-11.795.11-.11H14.69a6 6 0 0 1-6-6z" mask="url(&quot;#6ianb&quot;)"/><path fill-opacity=".25" d="M8.69 13.83a6 6 0 0 1 6-6h296a6 6 0 0 1 6 6v44.752a6 6 0 0 1-6 6H183.415L171.51 76.488l-11.796-11.795.11-.11H14.69a6 6 0 0 1-6-6z"/></g><path fill="#fff" d="M8.69 13.83a6 6 0 0 1 6-6h296a6 6 0 0 1 6 6v44.752a6 6 0 0 1-6 6H183.415L171.51 76.488l-11.796-11.795.11-.11H14.69a6 6 0 0 1-6-6z"/><path fill="none" stroke="#c6cbd4" stroke-miterlimit="50" stroke-width="2" d="M8.69 13.83a6 6 0 0 1 6-6h296a6 6 0 0 1 6 6v44.752a6 6 0 0 1-6 6H183.415L171.51 76.488l-11.796-11.795.11-.11H14.69a6 6 0 0 1-6-6z" clip-path="url(&quot;#6ianc&quot;)"/></g><g/><g/><g><path fill="#c6cbd4" d="M50.509 44.837a1.7 1.7 0 0 0 3.4 0 1.7 1.7 0 0 0-3.4 0zm-24.418 0a1.701 1.701 0 0 0 3.4 0 1.701 1.701 0 0 0-3.4 0zm18.54-2.258a2.526 2.526 0 0 0 2.525 2.525 2.53 2.53 0 0 0 2.53-2.525 2.533 2.533 0 0 0-2.53-2.53 2.529 2.529 0 0 0-2.526 2.53zM55 50.294a2.797 2.797 0 0 0-2.79-2.793c-.274 0-.534.053-.787.127.43.737.697 1.582.697 2.493v5.3H55zM30.315 42.58a2.531 2.531 0 0 0 2.534 2.525 2.53 2.53 0 0 0 2.53-2.525 2.534 2.534 0 0 0-2.53-2.53 2.534 2.534 0 0 0-2.534 2.53zm-2.522 4.922A2.798 2.798 0 0 0 25 50.294v5.127h2.88v-5.3c0-.91.263-1.756.698-2.493a2.764 2.764 0 0 0-.785-.127zm8.468-8.764a3.743 3.743 0 0 0 3.736 3.738 3.745 3.745 0 0 0 3.74-3.738A3.741 3.741 0 0 0 39.996 35a3.742 3.742 0 0 0-3.736 3.737zM51.195 50.12c0-2.23-1.813-4.04-4.039-4.04-.397 0-.777.076-1.138.182.473.926.766 1.957.766 3.066v8.065h4.411zm-17.983-.792c0-1.109.294-2.14.768-3.066a3.981 3.981 0 0 0-1.134-.182 4.044 4.044 0 0 0-4.04 4.04v7.273h4.406zm.925 10.399h11.721V49.329c0-3.232-2.63-5.86-5.861-5.86a5.865 5.865 0 0 0-5.86 5.86z"/></g></g></g></svg>