<svg xmlns="http://www.w3.org/2000/svg" width="181" height="74" viewBox="0 0 181 74"><defs><mask id="yb5lb" width="2" height="2" x="-1" y="-1"><path fill="#fff" d="M1 0h175v70H1z"/><path d="M1.69 8.83a8 8 0 0 1 8-8h158a8 8 0 0 1 8 8v40.75a8 8 0 0 1-8 8h-28.27L127.512 69.49l-11.795-11.796.113-.112H9.69a8 8 0 0 1-8-8z"/></mask><filter id="yb5la" width="205" height="100" x="-13" y="-14" filterUnits="userSpaceOnUse"><feOffset dx="2" dy="2" in="SourceGraphic" result="FeOffset1023Out"/><feGaussianBlur in="FeOffset1023Out" result="FeGaussianBlur1024Out" stdDeviation="1.6 1.6"/></filter><clipPath id="yb5lc"><path fill="#fff" d="M1.69 8.83a8 8 0 0 1 8-8h158a8 8 0 0 1 8 8v40.75a8 8 0 0 1-8 8h-28.27L127.512 69.49l-11.795-11.796.113-.112H9.69a8 8 0 0 1-8-8z"/></clipPath></defs><g><g><g filter="url(#yb5la)"><path fill="none" d="M1.69 8.83a8 8 0 0 1 8-8h158a8 8 0 0 1 8 8v40.75a8 8 0 0 1-8 8h-28.27L127.512 69.49l-11.795-11.796.113-.112H9.69a8 8 0 0 1-8-8z" mask="url(&quot;#yb5lb&quot;)"/><path fill-opacity=".1" d="M1.69 8.83a8 8 0 0 1 8-8h158a8 8 0 0 1 8 8v40.75a8 8 0 0 1-8 8h-28.27L127.512 69.49l-11.795-11.796.113-.112H9.69a8 8 0 0 1-8-8z"/></g><path fill="#fff" d="M1.69 8.83a8 8 0 0 1 8-8h158a8 8 0 0 1 8 8v40.75a8 8 0 0 1-8 8h-28.27L127.512 69.49l-11.795-11.796.113-.112H9.69a8 8 0 0 1-8-8z"/><path fill="none" stroke="#c6cbd4" stroke-miterlimit="50" stroke-width="2" d="M1.69 8.83a8 8 0 0 1 8-8h158a8 8 0 0 1 8 8v40.75a8 8 0 0 1-8 8h-28.27L127.512 69.49l-11.795-11.796.113-.112H9.69a8 8 0 0 1-8-8z" clip-path="url(&quot;#yb5lc&quot;)"/></g></g></svg>