<?xml version="1.0" encoding="UTF-8"?>
<svg width="289px" height="99px" viewBox="0 0 289 99" version="1.1" xmlns="http://www.w3.org/2000/svg" xmlns:xlink="http://www.w3.org/1999/xlink">
    <title>atom/pattern/user-testimonial/symbol</title>
    <defs>
        <rect id="path-1" x="192.020548" y="0" width="243.082192" height="105"></rect>
    </defs>
    <g id="Updated-Homepage" stroke="none" stroke-width="1" fill="none" fill-rule="evenodd">
        <g id="WBE-/-Homepage-/-Desktop" transform="translate(-3.000000, -286.000000)">
            <g id="Group" transform="translate(48.000000, 278.174885)">
                <g id="atom/pattern/w-+-Shape-Mask" transform="translate(-192.020548, 0.000000)">
                    <mask id="mask-2" fill="white">
                        <use xlink:href="#path-1"></use>
                    </mask>
                    <g id="Mask"></g>
                    <g id="Group-48" transform="translate(0.000000, 7.910959)" fill="#1E63FF">
                        <polygon id="Fill-1" points="217.910959 172.110318 217.910959 49.4415514 214.315068 45.5997021 214.315068 168.268469"></polygon>
                        <polygon id="Fill-2" points="225.301161 180.005455 225.301161 57.3366884 221.705271 53.494839 221.705271 176.163606"></polygon>
                        <polygon id="Fill-3" points="229.095832 61.2890034 229.095832 183.95849 232.691003 180.11664 232.691003 57.4478733"></polygon>
                        <polygon id="Fill-4" points="240.081493 172.221647 240.081493 49.552161 236.485603 53.3940103 236.485603 176.063497"></polygon>
                        <polygon id="Fill-5" points="247.472055 164.326151 247.472055 41.6581027 243.876164 45.4985137 243.876164 168.168"></polygon>
                        <polygon id="Fill-6" points="188.350223 140.532503 188.350223 17.8615788 184.754332 14.0197295 184.754332 136.692092"></polygon>
                        <polygon id="Fill-7" points="254.861897 156.431014 254.861897 33.7644041 251.266007 37.6048151 251.266007 160.272863"></polygon>
                        <polygon id="Fill-8" points="180.960021 132.639092 180.960021 9.96744863 177.36413 6.12703767 177.36413 128.798682"></polygon>
                        <polygon id="Fill-9" points="195.740425 148.425914 195.740425 25.7564281 192.144534 21.9145788 192.144534 144.585503"></polygon>
                        <polygon id="Fill-10" points="202.295517 155.427401 203.130483 156.319901 203.130483 33.6511336 199.534592 29.8100034 199.534592 152.478771"></polygon>
                        <polygon id="Fill-11" points="210.520757 164.214822 210.520757 41.5460548 206.924866 37.7049247 206.924866 160.372973"></polygon>
                        <polygon id="Fill-12" points="328.763774 77.4853973 328.763774 45.1871096 325.167884 41.3452603 325.167884 81.3258082"></polygon>
                        <polygon id="Fill-13" points="262.252459 148.537243 262.252459 25.868476 258.656568 29.7103253 258.656568 152.377654"></polygon>
                        <polygon id="Fill-14" points="313.98337 93.2739452 313.98337 29.3965479 310.387479 25.5546986 310.387479 97.1157945"></polygon>
                        <polygon id="Fill-15" points="171.626887 -7.19178082e-05 169.973497 1.76622945 169.973497 124.437154 171.626887 122.670853 173.570106 124.745682 173.570106 2.07403767"></polygon>
                        <polygon id="Fill-16" points="339.948216 65.5415034 343.544106 61.7018116 343.544106 60.9768801 339.948216 57.13575"></polygon>
                        <polygon id="Fill-17" points="336.153616 69.5940719 336.153616 53.0817432 332.557726 49.2398938 332.557726 73.4337637"></polygon>
                        <polygon id="Fill-18" points="321.373212 85.378089 321.373212 37.2916849 317.777322 33.4498356 317.777322 89.2199384"></polygon>
                        <polygon id="Fill-19" points="269.642301 140.643832 269.642301 17.9729075 266.046411 21.8147568 266.046411 144.484962"></polygon>
                        <polygon id="Fill-20" points="299.203038 109.066017 299.203038 13.6066336 295.607147 9.76406507 295.607147 112.907866"></polygon>
                        <polygon id="Fill-21" points="277.032072 132.75114 277.032072 10.0794966 273.569949 13.7767911 273.436182 13.9199075 273.436182 136.591551"></polygon>
                        <polygon id="Fill-22" points="284.422634 124.85701 284.422634 2.18608562 280.826743 6.02649658 280.826743 128.69814"></polygon>
                        <polygon id="Fill-23" points="291.812476 116.962233 291.812476 5.70897945 288.216586 1.86641096 288.216586 120.804082"></polygon>
                        <polygon id="Fill-24" points="306.59288 101.170161 306.59288 21.5010514 302.99699 17.6592021 302.99699 105.01201"></polygon>
                        <polygon id="Fill-25" points="47.9370308 113.210784 47.9370308 9.45783904 44.3411404 13.2975308 44.3411404 109.369654"></polygon>
                        <polygon id="Fill-26" points="55.3272329 121.104842 55.3272329 1.56521918 51.7313425 5.40563014 51.7313425 117.263712"></polygon>
                        <polygon id="Fill-27" points="62.717363 129.000411 62.717363 6.33092466 59.1214726 2.48835616 59.1214726 125.158562"></polygon>
                        <polygon id="Fill-28" points="70.1075651 136.895908 70.1075651 14.2278596 69.6854075 13.7769349 66.5116747 10.3852911 66.5116747 133.054058"></polygon>
                        <polygon id="Fill-29" points="40.5468288 105.316295 40.5468288 17.3514658 36.9509384 21.1925959 36.9509384 101.475164"></polygon>
                        <polygon id="Fill-30" points="77.4977671 144.791404 77.4977671 22.1233562 73.9018767 18.2815068 73.9018767 140.949555"></polygon>
                        <polygon id="Fill-31" points="33.1566267 97.4218767 33.1566267 25.2466027 29.5607363 29.0877329 29.5607363 93.5807466"></polygon>
                        <polygon id="Fill-32" points="0 60.6682808 0 62.0109863 3.59589041 65.8499589 3.59589041 56.8264315"></polygon>
                        <polygon id="Fill-33" points="10.9860925 73.7420034 10.9860925 48.9317979 7.39020205 52.7736473 7.39020205 69.9023116"></polygon>
                        <polygon id="Fill-34" points="18.3762945 81.633976 18.3762945 41.0363733 14.7804041 44.8782226 14.7804041 77.7942842"></polygon>
                        <polygon id="Fill-35" points="25.7664247 89.527387 25.7664247 33.1416678 22.1705342 36.9827979 22.1705342 85.6862568"></polygon>
                        <polygon id="Fill-36" points="136.61924 160.070414 136.61924 37.396613 133.023349 41.2377432 133.023349 163.910825"></polygon>
                        <polygon id="Fill-37" points="140.966599 155.427401 144.009442 152.175997 144.009442 29.5021952 142.916291 30.6694212 140.413551 33.3433253 140.413551 156.017846"></polygon>
                        <polygon id="Fill-38" points="166.179976 128.490514 166.179976 5.8210274 162.584086 9.66287671 162.584086 132.332363"></polygon>
                        <polygon id="Fill-39" points="84.8879692 152.686901 84.8879692 30.0181336 81.2920788 26.1762842 81.2920788 148.845051"></polygon>
                        <polygon id="Fill-40" points="151.399284 144.281507 151.399284 21.6105822 147.803394 25.4509932 147.803394 148.123356"></polygon>
                        <polygon id="Fill-41" points="158.789846 136.385651 158.789846 13.7176027 158.734469 13.7772945 155.193955 17.5572945 155.193955 140.2275"></polygon>
                        <polygon id="Fill-42" points="129.229038 167.963466 129.229038 45.2911027 125.633147 49.1329521 125.633147 171.803877"></polygon>
                        <polygon id="Fill-43" points="92.2780993 160.582397 92.2780993 37.9136301 88.6822089 34.0717808 88.6822089 156.740548"></polygon>
                        <polygon id="Fill-44" points="99.6683014 168.477606 99.6683014 45.808839 96.072411 41.9669897 96.072411 164.635757"></polygon>
                        <polygon id="Fill-45" points="121.838908 175.856517 121.838908 53.1855925 118.243017 57.0274418 118.243017 179.696928"></polygon>
                        <polygon id="Fill-46" points="110.853031 180.426318 114.205839 184.009264 114.448921 183.74964 114.448921 61.0801541 114.205839 61.3397774 110.853031 57.7568322"></polygon>
                        <polygon id="Fill-47" points="107.058503 176.373103 107.058503 53.7036164 103.462613 49.8617671 103.462613 172.531253"></polygon>
                    </g>
                    <polygon id="Shape" fill="#A98AF3" transform="translate(336.934932, 96.010274) scale(1, -1) rotate(-270.000000) translate(-336.934932, -96.010274) " points="348.397193 19.8874823 327.868837 -2.15753425 307.322598 19.8874823 254.589041 76.5386757 327.868837 194.178082 384.607927 133.243857 419.280822 96.010274"></polygon>
                </g>
            </g>
        </g>
    </g>
</svg>