<?xml version="1.0" encoding="UTF-8"?>
<svg width="323px" height="193px" viewBox="0 0 323 193" version="1.1" xmlns="http://www.w3.org/2000/svg" xmlns:xlink="http://www.w3.org/1999/xlink">
    <title>Group 2</title>
    <defs>
        <path d="M222.080788,40.7887972 C240.059945,58.6899536 249.213802,81.6278278 248.801524,106.50193 C247.495036,127.837626 231.599082,147.442017 210.26541,149.966342 C171.383855,156.729453 125.551249,141.89861 96.9246032,181.844267 C85.2267181,197.431635 55.4286651,192.992137 35.2642888,182.472366 C15.4446507,170.367961 4.02044562,150.229511 0.578691,127.788501 C-4.65288858,79.128768 26.2448092,36.3829849 66.6396953,14.9904434 C106.070721,-5.79364978 154.999639,-5.22309779 193.971249,18.3169088 C204.625069,24.5045557 214.275631,32.087353 222.080788,40.7887972" id="path-1"></path>
    </defs>
    <g id="Updated-Homepage" stroke="none" stroke-width="1" fill="none" fill-rule="evenodd">
        <g id="WBE-/-Homepage-/-Desktop" transform="translate(-1229.000000, -74.000000)">
            <g id="Group-2" transform="translate(1229.824865, 74.500000)">
                <g id="pattern-2" transform="translate(73.147968, -0.000000)">
                    <mask id="mask-2" fill="white">
                        <use xlink:href="#path-1"></use>
                    </mask>
                    <g id="Mask" transform="translate(124.407429, 96.000000) scale(-1, -1) rotate(-180.000000) translate(-124.407429, -96.000000) "></g>
                    <polygon id="Line-Copy" fill="#1E63FF" fill-rule="nonzero" mask="url(#mask-2)" points="-56.2188842 -22.0534209 -56.2188842 406.936474 -59.7667174 406.936474 -59.7667174 -22.0534209"></polygon>
                    <polygon id="Line-Copy" fill="#1E63FF" fill-rule="nonzero" mask="url(#mask-2)" points="-41.6360661 -22.0534209 -41.6360661 406.936474 -45.1838994 406.936474 -45.1838994 -22.0534209"></polygon>
                    <polygon id="Line-Copy" fill="#1E63FF" fill-rule="nonzero" mask="url(#mask-2)" points="2.11238808 -22.0534209 2.11238808 406.936474 -1.43544518 406.936474 -1.43544518 -22.0534209"></polygon>
                    <polygon id="Line-Copy" fill="#1E63FF" fill-rule="nonzero" mask="url(#mask-2)" points="250.020295 -22.0534209 250.020295 406.936474 246.472462 406.936474 246.472462 -22.0534209"></polygon>
                    <polygon id="Line-Copy" fill="#1E63FF" fill-rule="nonzero" mask="url(#mask-2)" points="16.6952061 -22.0534209 16.6952061 406.936474 13.1473729 406.936474 13.1473729 -22.0534209"></polygon>
                    <polygon id="Line-Copy" fill="#1E63FF" fill-rule="nonzero" mask="url(#mask-2)" points="60.4436603 -22.0534209 60.4436603 406.936474 56.8958271 406.936474 56.8958271 -22.0534209"></polygon>
                    <polygon id="Line-Copy" fill="#1E63FF" fill-rule="nonzero" mask="url(#mask-2)" points="75.0264784 -22.0534209 75.0264784 406.936474 71.4786451 406.936474 71.4786451 -22.0534209"></polygon>
                    <polygon id="Line-Copy" fill="#1E63FF" fill-rule="nonzero" mask="url(#mask-2)" points="118.774933 -22.0534209 118.774933 406.936474 115.227099 406.936474 115.227099 -22.0534209"></polygon>
                    <polygon id="Line-Copy" fill="#1E63FF" fill-rule="nonzero" mask="url(#mask-2)" points="133.357751 -22.0534209 133.357751 406.936474 129.809917 406.936474 129.809917 -22.0534209"></polygon>
                    <polygon id="Line-Copy" fill="#1E63FF" fill-rule="nonzero" mask="url(#mask-2)" points="177.106205 -22.0534209 177.106205 406.936474 173.558372 406.936474 173.558372 -22.0534209"></polygon>
                    <polygon id="Line-Copy" fill="#1E63FF" fill-rule="nonzero" mask="url(#mask-2)" points="191.689023 -22.0534209 191.689023 406.936474 188.14119 406.936474 188.14119 -22.0534209"></polygon>
                    <polygon id="Line-Copy" fill="#1E63FF" fill-rule="nonzero" mask="url(#mask-2)" points="235.437477 -22.0534209 235.437477 406.936474 231.889644 406.936474 231.889644 -22.0534209"></polygon>
                    <polygon id="Line-Copy" fill="#1E63FF" fill-rule="nonzero" mask="url(#mask-2)" points="-70.8017023 -22.0534209 -70.8017023 406.936474 -74.3495355 406.936474 -74.3495355 -22.0534209"></polygon>
                    <polygon id="Line-Copy" fill="#1E63FF" fill-rule="nonzero" mask="url(#mask-2)" points="-27.0532481 -22.0534209 -27.0532481 406.936474 -30.6010813 406.936474 -30.6010813 -22.0534209"></polygon>
                    <polygon id="Line-Copy" fill="#1E63FF" fill-rule="nonzero" mask="url(#mask-2)" points="-12.47043 -22.0534209 -12.47043 406.936474 -16.0182632 406.936474 -16.0182632 -22.0534209"></polygon>
                    <polygon id="Line-Copy" fill="#1E63FF" fill-rule="nonzero" mask="url(#mask-2)" points="31.2780242 -22.0534209 31.2780242 406.936474 27.730191 406.936474 27.730191 -22.0534209"></polygon>
                    <polygon id="Line-Copy" fill="#1E63FF" fill-rule="nonzero" mask="url(#mask-2)" points="45.8608423 -22.0534209 45.8608423 406.936474 42.313009 406.936474 42.313009 -22.0534209"></polygon>
                    <polygon id="Line-Copy" fill="#1E63FF" fill-rule="nonzero" mask="url(#mask-2)" points="89.6092965 -22.0534209 89.6092965 406.936474 86.0614632 406.936474 86.0614632 -22.0534209"></polygon>
                    <polygon id="Line-Copy" fill="#1E63FF" fill-rule="nonzero" mask="url(#mask-2)" points="104.192115 -22.0534209 104.192115 406.936474 100.644281 406.936474 100.644281 -22.0534209"></polygon>
                    <polygon id="Line-Copy" fill="#1E63FF" fill-rule="nonzero" mask="url(#mask-2)" points="147.940569 -22.0534209 147.940569 406.936474 144.392735 406.936474 144.392735 -22.0534209"></polygon>
                    <polygon id="Line-Copy" fill="#1E63FF" fill-rule="nonzero" mask="url(#mask-2)" points="162.523387 -22.0534209 162.523387 406.936474 158.975554 406.936474 158.975554 -22.0534209"></polygon>
                    <polygon id="Line-Copy" fill="#1E63FF" fill-rule="nonzero" mask="url(#mask-2)" points="206.271841 -22.0534209 206.271841 406.936474 202.724008 406.936474 202.724008 -22.0534209"></polygon>
                    <polygon id="Line-Copy" fill="#1E63FF" fill-rule="nonzero" mask="url(#mask-2)" points="220.854659 -22.0534209 220.854659 406.936474 217.306826 406.936474 217.306826 -22.0534209"></polygon>
                    <polygon id="Line-Copy" fill="#1E63FF" fill-rule="nonzero" mask="url(#mask-2)" points="-48.9274752 -22.0534209 -48.9274752 406.936474 -52.4753084 406.936474 -52.4753084 -22.0534209"></polygon>
                    <polygon id="Line-Copy" fill="#1E63FF" fill-rule="nonzero" mask="url(#mask-2)" points="-34.3446571 -22.0534209 -34.3446571 406.936474 -37.8924903 406.936474 -37.8924903 -22.0534209"></polygon>
                    <polygon id="Line-Copy" fill="#1E63FF" fill-rule="nonzero" mask="url(#mask-2)" points="9.40379711 -22.0534209 9.40379711 406.936474 5.85596385 406.936474 5.85596385 -22.0534209"></polygon>
                    <polygon id="Line-Copy" fill="#1E63FF" fill-rule="nonzero" mask="url(#mask-2)" points="23.9866152 -22.0534209 23.9866152 406.936474 20.4387819 406.936474 20.4387819 -22.0534209"></polygon>
                    <polygon id="Line-Copy" fill="#1E63FF" fill-rule="nonzero" mask="url(#mask-2)" points="67.7350694 -22.0534209 67.7350694 406.936474 64.1872361 406.936474 64.1872361 -22.0534209"></polygon>
                    <polygon id="Line-Copy" fill="#1E63FF" fill-rule="nonzero" mask="url(#mask-2)" points="82.3178874 -22.0534209 82.3178874 406.936474 78.7700542 406.936474 78.7700542 -22.0534209"></polygon>
                    <polygon id="Line-Copy" fill="#1E63FF" fill-rule="nonzero" mask="url(#mask-2)" points="126.066342 -22.0534209 126.066342 406.936474 122.518508 406.936474 122.518508 -22.0534209"></polygon>
                    <polygon id="Line-Copy" fill="#1E63FF" fill-rule="nonzero" mask="url(#mask-2)" points="140.64916 -22.0534209 140.64916 406.936474 137.101326 406.936474 137.101326 -22.0534209"></polygon>
                    <polygon id="Line-Copy" fill="#1E63FF" fill-rule="nonzero" mask="url(#mask-2)" points="184.397614 -22.0534209 184.397614 406.936474 180.849781 406.936474 180.849781 -22.0534209"></polygon>
                    <polygon id="Line-Copy" fill="#1E63FF" fill-rule="nonzero" mask="url(#mask-2)" points="198.980432 -22.0534209 198.980432 406.936474 195.432599 406.936474 195.432599 -22.0534209"></polygon>
                    <polygon id="Line-Copy" fill="#1E63FF" fill-rule="nonzero" mask="url(#mask-2)" points="242.728886 -22.0534209 242.728886 406.936474 239.181053 406.936474 239.181053 -22.0534209"></polygon>
                    <polygon id="Line-Copy" fill="#1E63FF" fill-rule="nonzero" mask="url(#mask-2)" points="-63.5102932 -22.0534209 -63.5102932 406.936474 -67.0581265 406.936474 -67.0581265 -22.0534209"></polygon>
                    <polygon id="Line-Copy" fill="#1E63FF" fill-rule="nonzero" mask="url(#mask-2)" points="-19.761839 -22.0534209 -19.761839 406.936474 -23.3096723 406.936474 -23.3096723 -22.0534209"></polygon>
                    <polygon id="Line-Copy" fill="#1E63FF" fill-rule="nonzero" mask="url(#mask-2)" points="-5.17902096 -22.0534209 -5.17902096 406.936474 -8.72685421 406.936474 -8.72685421 -22.0534209"></polygon>
                    <polygon id="Line-Copy" fill="#1E63FF" fill-rule="nonzero" mask="url(#mask-2)" points="38.5694332 -22.0534209 38.5694332 406.936474 35.0216 406.936474 35.0216 -22.0534209"></polygon>
                    <polygon id="Line-Copy" fill="#1E63FF" fill-rule="nonzero" mask="url(#mask-2)" points="53.1522513 -22.0534209 53.1522513 406.936474 49.604418 406.936474 49.604418 -22.0534209"></polygon>
                    <polygon id="Line-Copy" fill="#1E63FF" fill-rule="nonzero" mask="url(#mask-2)" points="96.9007055 -22.0534209 96.9007055 406.936474 93.3528722 406.936474 93.3528722 -22.0534209"></polygon>
                    <polygon id="Line-Copy" fill="#1E63FF" fill-rule="nonzero" mask="url(#mask-2)" points="111.483524 -22.0534209 111.483524 406.936474 107.93569 406.936474 107.93569 -22.0534209"></polygon>
                    <polygon id="Line-Copy" fill="#1E63FF" fill-rule="nonzero" mask="url(#mask-2)" points="155.231978 -22.0534209 155.231978 406.936474 151.684145 406.936474 151.684145 -22.0534209"></polygon>
                    <polygon id="Line-Copy" fill="#1E63FF" fill-rule="nonzero" mask="url(#mask-2)" points="169.814796 -22.0534209 169.814796 406.936474 166.266963 406.936474 166.266963 -22.0534209"></polygon>
                    <polygon id="Line-Copy" fill="#1E63FF" fill-rule="nonzero" mask="url(#mask-2)" points="213.56325 -22.0534209 213.56325 406.936474 210.015417 406.936474 210.015417 -22.0534209"></polygon>
                    <polygon id="Line-Copy" fill="#1E63FF" fill-rule="nonzero" mask="url(#mask-2)" points="228.146068 -22.0534209 228.146068 406.936474 224.598235 406.936474 224.598235 -22.0534209"></polygon>
                </g>
                <path d="M38.2172139,48.66214 C46.4201221,34.4960499 58.8224735,24.7242943 73.680217,20.3680428 C86.5542186,17.2066087 100.385553,23.1716751 104.794021,35.5810021 C114.115418,57.7972036 111.534082,88.2067725 139.204023,98.0899813 C150.073074,102.264856 151.490778,121.072406 147.977934,135.190898 C143.475173,149.394685 133.047942,160.018512 120.16308,166.250545 C91.9203415,178.416922 62.2747666,167.681347 44.0418188,147.260159 C26.3022437,127.308097 19.976035,97.6697382 28.6745367,69.7889775 C30.9051572,62.2129408 34.1026524,54.9841626 38.2172139,48.66214 Z" id="Fill-1-Copy-3" fill="#A98AF3" transform="translate(87.246912, 95.455833) rotate(-258.000000) translate(-87.246912, -95.455833) "></path>
            </g>
        </g>
    </g>
</svg>