<svg class="site-logo" width="316" height="34" xmlns="http://www.w3.org/2000/svg" viewBox="0 0 2736.76 296.53">
    <defs>
        <style>.cls-1{fill:#0eb1d2;}.cls-2{fill:#8c63ef;}.cls-3{fill:#1e64ff;}.cls-4{fill:#25334d;}.cls-5{fill:#29235c;}</style>
    </defs>
    <title>Website Builder Expert</title>
    <polygon class="cls-1" points="360.33 91.19 317.84 45.85 305.54 32.72 293.23 45.85 278.14 61.96 305.54 149.66 339.55 113.37 360.33 91.19"/>
    <polygon class="cls-2" points="271.53 113.37 250.74 91.19 208.25 45.85 195.95 32.72 183.64 45.85 168.55 61.96 195.95 149.66 225.21 180.89 250.74 208.14 276.27 180.89 305.54 149.66 271.53 113.37"/>
    <polygon class="cls-3" points="161.94 113.37 141.15 91.19 98.66 45.85 86.36 32.72 74.05 45.85 31.56 91.19 52.35 113.37 86.36 149.66 115.62 180.89 141.15 208.14 166.68 180.89 195.95 149.66 161.94 113.37"/>
    <polygon class="cls-4" points="141.15 91.19 161.94 113.37 195.95 149.66 168.55 61.96 141.15 91.19"/>
    <polygon class="cls-4" points="250.74 91.19 271.53 113.37 305.54 149.66 305.54 149.66 278.14 61.96 250.74 91.19"/>
    <polygon class="cls-5" points="611.18 32.72 569.16 151.97 529.24 32.74 509.23 32.74 466.98 151.97 427.84 32.72 391.59 32.72 452.53 207.92 478.27 207.92 518.46 96.81 556.81 207.92 582.55 207.92 647.43 32.72 611.18 32.72"/>
    <path class="cls-5" d="M687.48,90.51c-13.66,0-29.42,2.89-42.82,16-8.14,8.14-17.33,22.06-17.33,44.65,0,17.87,5.25,32.58,17.86,44.4,11.29,10.77,25.22,16,43.6,16,39.67,0,52.54-27.06,56-35.46l-29.42-4.73c-5.25,9.19-14.45,15-26.53,15-12.34,0-19.44-6-22.85-10.77-3.68-5-5.52-12.34-5.52-19.17h85.11v-2.63c0-12.34-1.58-30.2-13.66-44.65C724,99.7,710.59,90.51,687.48,90.51Zm-26,45.44a26.77,26.77,0,0,1,26.8-22.85c11.82,0,24.42,7.35,27.05,22.85Z"/>
    <path class="cls-5" d="M833.49,90.51c-9.72,0-25.74,2.62-37,18.38V32.72h-32v175.2h32V193.21c12.35,17.08,28.9,18.39,36.25,18.39,33.62,0,56.74-26,56.74-60.68C889.44,116.51,867.11,90.51,833.49,90.51Zm-8.67,92.72c-18.39,0-31.52-14.18-31.52-32.31s13.13-32,31.52-32,31.52,13.92,31.52,32S843.21,183.23,824.82,183.23Z"/>
    <path class="cls-5" d="M954.27,135.43l-7.61-2.37c-8.93-2.89-10.25-7.36-10.25-10.24,0-5.52,4.73-9.2,12.35-9.2,3.41,0,11,.53,18.65,7.62l15.76-18.65a56.75,56.75,0,0,0-36.25-12.08c-9.19,0-20.75,1-29.68,8.14a33.78,33.78,0,0,0-11.82,25.74,30.49,30.49,0,0,0,8.66,21.8c6.83,7.1,16.29,10.77,24.43,13.66l7.36,2.63c4.2,1.58,10,4.47,10,11.56,0,7.88-6.83,12.34-15.76,12.34-9.46,0-18.91-5.78-25.22-13.13l-16.81,19.44c7.09,7.61,20.49,18.91,44.13,18.91,13.92,0,24.95-3.68,34.15-12.08A37.83,37.83,0,0,0,989,170.62a33,33,0,0,0-5.78-18.91C976.6,142.78,963.2,138.31,954.27,135.43Z"/>
    <path class="cls-5" d="M1026.63,32.74a19.18,19.18,0,1,0,19.18,19.17A19.28,19.28,0,0,0,1026.63,32.74Z"/>
    <rect class="cls-5" x="1010.61" y="94.19" width="32.05" height="113.74"/>
    <polygon class="cls-5" points="1108.98 55.31 1076.93 55.31 1076.93 94.19 1064.32 94.19 1064.32 121.5 1076.93 121.5 1076.93 207.92 1108.98 207.92 1108.98 121.5 1131.04 121.5 1131.04 94.19 1108.98 94.19 1108.98 55.31"/>
    <path class="cls-5" d="M1196.42,90.51c-13.66,0-29.42,2.89-42.82,16-8.14,8.14-17.33,22.06-17.33,44.65,0,17.87,5.25,32.58,17.86,44.4,11.29,10.77,25.22,16,43.6,16,39.67,0,52.54-27.06,56-35.46l-29.42-4.73c-5.25,9.19-14.45,15-26.53,15-12.34,0-19.44-6-22.85-10.77-3.68-5-5.52-12.34-5.52-19.17h85.11v-2.63c0-12.34-1.58-30.2-13.66-44.65C1232.93,99.7,1219.53,90.51,1196.42,90.51Zm-26,45.44a26.77,26.77,0,0,1,26.8-22.85c11.82,0,24.42,7.35,27,22.85Z"/>
    <path class="cls-5" d="M1359,114.41c4.72-2.63,19.7-11.82,19.7-34.41,0-14.71-6-28.37-16.29-36.25-14.18-11-33.1-11-42.81-11h-43.35v175.2h58.84c15.24,0,31.26-2.63,44.39-14.18,12.09-10.77,15-25.22,15-35.46,0-9.2-2.1-22.85-12.61-32.84A41.24,41.24,0,0,0,1359,114.41Zm-48.6-53.85h10c13.92,0,26.27,6,26.27,22.07,0,22.32-21.28,22.85-26.53,22.85h-9.72Zm38.09,114.79c-7.62,4.47-17.07,4.73-23.38,4.73h-14.71V131.75H1323c7.35,0,16,0,23.38,3.41,11,5,12.87,14.45,12.87,20C1359.25,162,1356.88,170.36,1348.48,175.35Z"/>
    <path class="cls-5" d="M1488.7,158.54c0,6-.52,14.18-6.83,20a25.83,25.83,0,0,1-32.57,0c-6.3-5.78-6.83-13.92-6.83-20V94.19h-32v69.6c0,10.25,1.32,23.91,13.93,34.94,10.5,9.19,27.31,12.87,41.24,12.87s30.73-3.68,41.23-12.87c12.61-11,13.93-24.69,13.93-34.94V94.19h-32Z"/>
    <path class="cls-5" d="M1558.6,32.74a19.18,19.18,0,1,0,19.18,19.17A19.28,19.28,0,0,0,1558.6,32.74Z"/>
    <rect class="cls-5" x="1542.58" y="94.19" width="32.05" height="113.74"/>
    <rect class="cls-5" x="1599.3" y="32.72" width="32.05" height="175.2"/>
    <path class="cls-5" d="M1743.21,108.89c-10.77-16.81-27.84-18.38-36.51-18.38-33.62,0-56.47,26.79-56.47,60.41,0,33.36,23.11,60.68,58,60.68,8.14,0,23.37-1.84,34.93-18.39v14.71h32V32.72h-32Zm-28.37,74.34c-18.38,0-31.52-14.18-31.52-32.31s13.14-32,31.52-32,31.52,13.92,31.52,32S1733.23,183.23,1714.84,183.23Z"/>
    <path class="cls-5" d="M1854.28,90.51c-13.65,0-29.41,2.89-42.81,16-8.14,8.14-17.34,22.06-17.34,44.65,0,17.87,5.26,32.58,17.87,44.4,11.29,10.77,25.21,16,43.6,16,39.66,0,52.53-27.06,56-35.46l-29.42-4.73c-5.26,9.19-14.45,15-26.53,15-12.35,0-19.44-6-22.85-10.77-3.68-5-5.52-12.34-5.52-19.17h85.11v-2.63c0-12.34-1.58-30.2-13.66-44.65C1890.8,99.7,1877.4,90.51,1854.28,90.51Zm-26,45.44c2.63-15.24,15-22.85,26.79-22.85s24.43,7.35,27.06,22.85Z"/>
    <polygon class="cls-5" points="2018.79 207.92 2115.98 207.92 2115.98 178.5 2052.94 178.5 2052.94 130.7 2113.35 130.7 2113.35 101.28 2052.94 101.28 2052.94 62.14 2115.98 62.14 2115.98 32.72 2018.79 32.72 2018.79 207.92"/>
    <polygon class="cls-5" points="2250.19 94.23 2213.47 94.23 2192.01 123.64 2171.04 94.23 2134.32 94.23 2173.9 145.95 2124.78 207.92 2161.98 207.92 2192.01 168.27 2221.58 207.92 2258.77 207.92 2209.9 145.95 2250.19 94.23"/>
    <path class="cls-5" d="M2338.92,90.51c-21,0-32,11.29-37,18.38V94.19h-32V268.07h32V193.21c12.6,17.08,28.63,18.39,36.51,18.39,16.81,0,29.94-6.57,38.61-14.71,6.57-6.31,17.86-20.23,17.86-46,0-22.59-8.67-36.77-17.07-45.18C2364.93,92.87,2348.9,90.51,2338.92,90.51Zm12.87,84.58c-4.2,3.94-11,8.14-21.54,8.14a31.12,31.12,0,0,1-21-7.62c-6.3-5.51-10.51-14.18-10.51-24.69s3.68-18.39,10.77-24.43c5.78-5.25,12.35-7.61,20.75-7.61a33.47,33.47,0,0,1,21.81,8.14c6.3,6,9.72,15.5,9.72,23.9S2358.62,168.78,2351.79,175.09Z"/>
    <path class="cls-5" d="M2468.1,90.51c-13.66,0-29.42,2.89-42.81,16-8.15,8.14-17.34,22.06-17.34,44.65,0,17.87,5.25,32.58,17.86,44.4,11.3,10.77,25.22,16,43.61,16,39.66,0,52.53-27.06,55.94-35.46l-29.42-4.73c-5.25,9.19-14.44,15-26.52,15-12.35,0-19.44-6-22.86-10.77-3.67-5-5.51-12.34-5.51-19.17h85.1v-2.63c0-12.34-1.57-30.2-13.66-44.65C2504.61,99.7,2491.22,90.51,2468.1,90.51Zm-26,45.44a26.75,26.75,0,0,1,26.79-22.85c11.82,0,24.43,7.35,27.05,22.85Z"/>
    <path class="cls-5" d="M2588.36,95.5c-2.36,1.31-9.19,6-14.18,15.76V94.19h-32V207.92h32V153.29c0-7.88.26-17.6,6.3-25.22,6.3-7.88,15.24-9.19,21.28-9.19,6.56,0,10.77,1.31,15,4.2l4.2-29.95a39.52,39.52,0,0,0-13.66-2.62C2599.66,90.51,2593.35,92.35,2588.36,95.5Z"/>
    <polygon class="cls-5" points="2678.67 94.19 2678.67 55.31 2646.62 55.31 2646.62 94.19 2634.01 94.19 2634.01 121.5 2646.62 121.5 2646.62 207.92 2678.67 207.92 2678.67 121.5 2700.73 121.5 2700.73 94.19 2678.67 94.19"/>
    <path class="cls-5" d="M1977.44,95.5c-2.36,1.31-9.19,6-14.18,15.76V94.19h-32V207.92h32V153.29c0-7.88.26-17.6,6.3-25.22,6.31-7.88,15.24-9.19,21.28-9.19a34.59,34.59,0,0,1,5.85.44V90.52h-.33C1988.74,90.51,1982.43,92.35,1977.44,95.5Z"/>
</svg>
